<svg width="48" height="49" viewBox="0 0 48 49" fill="none" xmlns="http://www.w3.org/2000/svg">
<path d="M33.3602 41.799C31.1938 41.799 29.3393 41.0279 27.7967 39.4855C26.254 37.9429 25.4827 36.0885 25.4827 33.9225C25.4827 31.7329 26.2538 29.862 27.7962 28.31C29.3388 26.7584 31.1932 25.9825 33.3592 25.9825C35.5488 25.9825 37.4217 26.7582 38.9777 28.3095C40.5333 29.8609 41.3112 31.7315 41.3112 33.9215C41.3112 34.6919 41.1967 35.4314 40.9677 36.14C40.7387 36.8487 40.4317 37.5014 40.0467 38.098L44.8037 42.94C44.986 43.1227 45.1165 43.3102 45.1952 43.5025C45.2738 43.6949 45.3132 43.8957 45.3132 44.105C45.3132 44.3147 45.2738 44.5232 45.1952 44.7305C45.1165 44.9379 44.986 45.1367 44.8037 45.327C44.613 45.5097 44.4208 45.6404 44.2272 45.719C44.0335 45.7977 43.8335 45.837 43.6272 45.837C43.4208 45.837 43.2112 45.7977 42.9982 45.719C42.7852 45.6404 42.5913 45.5097 42.4167 45.327L37.5862 40.5465C36.9862 40.9602 36.3267 41.2724 35.6077 41.483C34.8887 41.6937 34.1395 41.799 33.3602 41.799ZM10.5222 41.861C8.35083 41.861 6.49416 41.0897 4.95216 39.547C3.41016 38.0047 2.63916 36.1505 2.63916 33.9845C2.63916 31.7492 3.41049 29.8567 4.95316 28.307C6.49549 26.7574 8.34966 25.9825 10.5157 25.9825C12.751 25.9825 14.6435 26.7565 16.1932 28.3045C17.7428 29.8529 18.5177 31.744 18.5177 33.978C18.5177 36.1494 17.7437 38.006 16.1957 39.548C14.6473 41.09 12.7562 41.861 10.5222 41.861ZM10.5192 38.4545C11.8108 38.4545 12.901 38.0164 13.7897 37.14C14.6787 36.264 15.1232 35.2109 15.1232 33.9805C15.1232 32.6892 14.6788 31.5992 13.7902 30.7105C12.9018 29.8215 11.8107 29.377 10.5167 29.377C9.27766 29.377 8.22283 29.8214 7.35216 30.71C6.48116 31.5984 6.04566 32.6894 6.04566 33.983C6.04566 35.2157 6.48216 36.269 7.35516 37.143C8.22783 38.0174 9.28249 38.4545 10.5192 38.4545ZM33.3097 38.4545C34.5953 38.4545 35.6825 38.0164 36.5712 37.14C37.4602 36.264 37.9047 35.2109 37.9047 33.9805C37.9047 32.6892 37.4602 31.5992 36.5712 30.7105C35.6825 29.8215 34.5933 29.377 33.3037 29.377C32.069 29.377 31.0143 29.8214 30.1397 30.71C29.2647 31.5984 28.8272 32.6894 28.8272 33.983C28.8272 35.2157 29.2645 36.269 30.1392 37.143C31.0135 38.0174 32.0703 38.4545 33.3097 38.4545ZM10.5222 19.0795C8.35083 19.0795 6.49416 18.307 4.95216 16.762C3.41016 15.217 2.63916 13.3597 2.63916 11.19C2.63916 8.96336 3.41049 7.07319 4.95316 5.51953C6.49549 3.96586 8.34966 3.18903 10.5157 3.18903C12.751 3.18903 14.6435 3.96536 16.1932 5.51802C17.7428 7.07069 18.5177 8.95986 18.5177 11.1855C18.5177 13.3605 17.7437 15.2199 16.1957 16.7635C14.6473 18.3075 12.7562 19.0795 10.5222 19.0795ZM33.3147 19.0795C31.1397 19.0795 29.2803 18.307 27.7367 16.762C26.1927 15.217 25.4207 13.3597 25.4207 11.19C25.4207 8.96336 26.1932 7.07319 27.7382 5.51953C29.2832 3.96586 31.1405 3.18903 33.3102 3.18903C35.5368 3.18903 37.427 3.96536 38.9807 5.51802C40.5343 7.07069 41.3112 8.95986 41.3112 11.1855C41.3112 13.3605 40.5348 15.2199 38.9822 16.7635C37.4295 18.3075 35.5403 19.0795 33.3147 19.0795ZM10.5192 15.673C11.8108 15.673 12.901 15.2359 13.7897 14.3615C14.6787 13.4875 15.1232 12.4304 15.1232 11.19C15.1232 9.90469 14.6788 8.81769 13.7902 7.92903C12.9018 7.04002 11.8107 6.59552 10.5167 6.59552C9.27766 6.59552 8.22283 7.04002 7.35216 7.92903C6.48116 8.81769 6.04566 9.90469 6.04566 11.19C6.04566 12.4304 6.48216 13.4875 7.35516 14.3615C8.22783 15.2359 9.28249 15.673 10.5192 15.673ZM33.3097 15.673C34.5953 15.673 35.6825 15.2359 36.5712 14.3615C37.4602 13.4875 37.9047 12.4304 37.9047 11.19C37.9047 9.90469 37.4602 8.81769 36.5712 7.92903C35.6825 7.04002 34.5933 6.59552 33.3037 6.59552C32.069 6.59552 31.0143 7.04002 30.1397 7.92903C29.2647 8.81769 28.8272 9.90469 28.8272 11.19C28.8272 12.4304 29.2645 13.4875 30.1392 14.3615C31.0135 15.2359 32.0703 15.673 33.3097 15.673Z" fill="#56129C"/>
</svg>
