<svg width="17" height="17" viewBox="0 0 17 17" fill="none" xmlns="http://www.w3.org/2000/svg">
<path d="M5.74833 8.90419C5.60722 8.90419 5.48944 8.95208 5.395 9.04786C5.30055 9.14375 5.25333 9.26253 5.25333 9.40419V11.8209C5.25333 11.9625 5.3015 12.0813 5.39783 12.177C5.49427 12.2729 5.61305 12.3209 5.75416 12.3209C5.89539 12.3209 6.01388 12.2729 6.10966 12.177C6.20544 12.0813 6.25333 11.9625 6.25333 11.8209V9.40419C6.25333 9.26253 6.20444 9.14375 6.10666 9.04786C6.009 8.95208 5.88955 8.90419 5.74833 8.90419ZM11.2458 5.32086C11.1046 5.32086 10.9868 5.36875 10.8923 5.46453C10.7979 5.56042 10.7507 5.67919 10.7507 5.82086V11.8209C10.7507 11.9625 10.7989 12.0813 10.8953 12.177C10.9917 12.2729 11.1104 12.3209 11.2517 12.3209C11.3928 12.3209 11.5112 12.2729 11.607 12.177C11.7028 12.0813 11.7507 11.9625 11.7507 11.8209V5.82086C11.7507 5.67919 11.7018 5.56042 11.6042 5.46453C11.5064 5.36875 11.3869 5.32086 11.2458 5.32086ZM8.497 10.3542C8.35455 10.3542 8.23611 10.4021 8.14166 10.4979C8.04722 10.5938 8 10.7125 8 10.8542V11.8209C8 11.9625 8.04822 12.0813 8.14466 12.177C8.241 12.2729 8.36044 12.3209 8.503 12.3209C8.64544 12.3209 8.76389 12.2729 8.85833 12.177C8.95277 12.0813 9 11.9625 9 11.8209V10.8542C9 10.7125 8.95177 10.5938 8.85533 10.4979C8.759 10.4021 8.63955 10.3542 8.497 10.3542ZM3.53583 15.0372C3.22916 15.0372 2.96327 14.9246 2.73816 14.6994C2.51294 14.4743 2.40033 14.2084 2.40033 13.9017V3.97336C2.40033 3.66558 2.51294 3.39875 2.73816 3.17286C2.96327 2.94686 3.22916 2.83386 3.53583 2.83386H13.4642C13.7719 2.83386 14.0388 2.94686 14.2647 3.17286C14.4907 3.39875 14.6037 3.66558 14.6037 3.97336V13.9017C14.6037 14.2084 14.4907 14.4743 14.2647 14.6994C14.0388 14.9246 13.7719 15.0372 13.4642 15.0372H3.53583ZM3.53583 13.9017H13.4642V3.97336H3.53583V13.9017ZM8.503 8.90419C8.64544 8.90419 8.76389 8.85597 8.85833 8.75953C8.95277 8.6632 9 8.54375 9 8.4012C9 8.25875 8.95177 8.14031 8.85533 8.04586C8.759 7.95142 8.63955 7.90419 8.497 7.90419C8.35455 7.90419 8.23611 7.95242 8.14166 8.04886C8.04722 8.14519 8 8.26464 8 8.40719C8 8.54964 8.04822 8.66808 8.14466 8.76253C8.241 8.85697 8.36044 8.90419 8.503 8.90419Z" fill="black"/>
</svg>
