<svg width="48" height="49" viewBox="0 0 48 49" fill="none" xmlns="http://www.w3.org/2000/svg">
<path d="M15.745 24.8375C15.3217 24.8375 14.9683 24.9811 14.685 25.2685C14.4017 25.5561 14.26 25.9125 14.26 26.3375V33.5875C14.26 34.0125 14.4045 34.3686 14.6935 34.656C14.9828 34.9436 15.3392 35.0875 15.7625 35.0875C16.1862 35.0875 16.5417 34.9436 16.829 34.656C17.1163 34.3686 17.26 34.0125 17.26 33.5875V26.3375C17.26 25.9125 17.1133 25.5561 16.82 25.2685C16.527 24.9811 16.1687 24.8375 15.745 24.8375ZM32.2375 14.0875C31.8138 14.0875 31.4603 14.2311 31.177 14.5185C30.8937 14.8061 30.752 15.1625 30.752 15.5875V33.5875C30.752 34.0125 30.8967 34.3686 31.186 34.656C31.475 34.9436 31.8313 35.0875 32.255 35.0875C32.6783 35.0875 33.0337 34.9436 33.321 34.656C33.6083 34.3686 33.752 34.0125 33.752 33.5875V15.5875C33.752 15.1625 33.6055 14.8061 33.3125 14.5185C33.0192 14.2311 32.6608 14.0875 32.2375 14.0875ZM23.991 29.1875C23.5637 29.1875 23.2083 29.3311 22.925 29.6185C22.6417 29.9061 22.5 30.2625 22.5 30.6875V33.5875C22.5 34.0125 22.6447 34.3686 22.934 34.656C23.223 34.9436 23.5813 35.0875 24.009 35.0875C24.4363 35.0875 24.7917 34.9436 25.075 34.656C25.3583 34.3686 25.5 34.0125 25.5 33.5875V30.6875C25.5 30.2625 25.3553 29.9061 25.066 29.6185C24.777 29.3311 24.4187 29.1875 23.991 29.1875ZM9.10749 43.2365C8.18749 43.2365 7.38982 42.8986 6.71449 42.223C6.03882 41.5476 5.70099 40.75 5.70099 39.83V10.045C5.70099 9.12163 6.03882 8.32113 6.71449 7.64346C7.38982 6.96546 8.18749 6.62646 9.10749 6.62646H38.8925C39.8158 6.62646 40.6163 6.96546 41.294 7.64346C41.972 8.32113 42.311 9.12163 42.311 10.045V39.83C42.311 40.75 41.972 41.5476 41.294 42.223C40.6163 42.8986 39.8158 43.2365 38.8925 43.2365H9.10749ZM9.10749 39.83H38.8925V10.045H9.10749V39.83ZM24.009 24.8375C24.4363 24.8375 24.7917 24.6928 25.075 24.4035C25.3583 24.1145 25.5 23.7561 25.5 23.3285C25.5 22.9011 25.3553 22.5458 25.066 22.2625C24.777 21.9791 24.4187 21.8375 23.991 21.8375C23.5637 21.8375 23.2083 21.9821 22.925 22.2715C22.6417 22.5605 22.5 22.9188 22.5 23.3465C22.5 23.7738 22.6447 24.1291 22.934 24.4125C23.223 24.6958 23.5813 24.8375 24.009 24.8375Z" fill="black"/>
</svg>
