<svg width="17" height="16" viewBox="0 0 17 16" fill="none" xmlns="http://www.w3.org/2000/svg">
<path d="M4.2217 13.425C3.89814 13.425 3.6262 13.3147 3.40586 13.0943C3.18542 12.874 3.0752 12.602 3.0752 12.2785C3.0752 11.9549 3.18542 11.6832 3.40586 11.4633C3.6262 11.2433 3.89814 11.1333 4.2217 11.1333C4.54525 11.1333 4.81697 11.2433 5.03686 11.4633C5.25686 11.6832 5.36686 11.9549 5.36686 12.2785C5.36686 12.602 5.25686 12.874 5.03686 13.0943C4.81697 13.3147 4.54525 13.425 4.2217 13.425ZM8.5017 13.425C8.17892 13.425 7.90736 13.3147 7.68703 13.0943C7.46658 12.874 7.35636 12.602 7.35636 12.2785C7.35636 11.9549 7.46608 11.6832 7.68553 11.4633C7.90486 11.2433 8.17592 11.1333 8.49869 11.1333C8.82147 11.1333 9.09303 11.2433 9.31336 11.4633C9.53381 11.6832 9.64403 11.9549 9.64403 12.2785C9.64403 12.602 9.53431 12.874 9.31486 13.0943C9.09553 13.3147 8.82447 13.425 8.5017 13.425ZM12.7787 13.425C12.4551 13.425 12.1834 13.3147 11.9635 13.0943C11.7435 12.874 11.6335 12.602 11.6335 12.2785C11.6335 11.9549 11.7435 11.6832 11.9635 11.4633C12.1834 11.2433 12.4551 11.1333 12.7787 11.1333C13.1023 11.1333 13.3742 11.2433 13.5945 11.4633C13.815 11.6832 13.9252 11.9549 13.9252 12.2785C13.9252 12.602 13.815 12.874 13.5945 13.0943C13.3742 13.3147 13.1023 13.425 12.7787 13.425ZM4.2217 9.14378C3.89814 9.14378 3.6262 9.03406 3.40586 8.81462C3.18542 8.59528 3.0752 8.32423 3.0752 8.00145C3.0752 7.67867 3.18542 7.40712 3.40586 7.18678C3.6262 6.96634 3.89814 6.85612 4.2217 6.85612C4.54525 6.85612 4.81697 6.96584 5.03686 7.18528C5.25686 7.40462 5.36686 7.67567 5.36686 7.99845C5.36686 8.32123 5.25686 8.59278 5.03686 8.81312C4.81697 9.03356 4.54525 9.14378 4.2217 9.14378ZM8.5017 9.14378C8.17892 9.14378 7.90736 9.03406 7.68703 8.81462C7.46658 8.59528 7.35636 8.32423 7.35636 8.00145C7.35636 7.67867 7.46608 7.40712 7.68553 7.18678C7.90486 6.96634 8.17592 6.85612 8.49869 6.85612C8.82147 6.85612 9.09303 6.96584 9.31336 7.18528C9.53381 7.40462 9.64403 7.67567 9.64403 7.99845C9.64403 8.32123 9.53431 8.59278 9.31486 8.81312C9.09553 9.03356 8.82447 9.14378 8.5017 9.14378ZM12.7787 9.14378C12.4551 9.14378 12.1834 9.03406 11.9635 8.81462C11.7435 8.59528 11.6335 8.32423 11.6335 8.00145C11.6335 7.67867 11.7435 7.40712 11.9635 7.18678C12.1834 6.96634 12.4551 6.85612 12.7787 6.85612C13.1023 6.85612 13.3742 6.96584 13.5945 7.18528C13.815 7.40462 13.9252 7.67567 13.9252 7.99845C13.9252 8.32123 13.815 8.59278 13.5945 8.81312C13.3742 9.03356 13.1023 9.14378 12.7787 9.14378ZM4.2217 4.86662C3.89814 4.86662 3.6262 4.75662 3.40586 4.53662C3.18542 4.31673 3.0752 4.04501 3.0752 3.72145C3.0752 3.3979 3.18542 3.12595 3.40586 2.90562C3.6262 2.68517 3.89814 2.57495 4.2217 2.57495C4.54525 2.57495 4.81697 2.68517 5.03686 2.90562C5.25686 3.12595 5.36686 3.3979 5.36686 3.72145C5.36686 4.04501 5.25686 4.31673 5.03686 4.53662C4.81697 4.75662 4.54525 4.86662 4.2217 4.86662ZM8.5017 4.86662C8.17892 4.86662 7.90736 4.75662 7.68703 4.53662C7.46658 4.31673 7.35636 4.04501 7.35636 3.72145C7.35636 3.3979 7.46608 3.12595 7.68553 2.90562C7.90486 2.68517 8.17592 2.57495 8.49869 2.57495C8.82147 2.57495 9.09303 2.68517 9.31336 2.90562C9.53381 3.12595 9.64403 3.3979 9.64403 3.72145C9.64403 4.04501 9.53431 4.31673 9.31486 4.53662C9.09553 4.75662 8.82447 4.86662 8.5017 4.86662ZM12.7787 4.86662C12.4551 4.86662 12.1834 4.75662 11.9635 4.53662C11.7435 4.31673 11.6335 4.04501 11.6335 3.72145C11.6335 3.3979 11.7435 3.12595 11.9635 2.90562C12.1834 2.68517 12.4551 2.57495 12.7787 2.57495C13.1023 2.57495 13.3742 2.68517 13.5945 2.90562C13.815 3.12595 13.9252 3.3979 13.9252 3.72145C13.9252 4.04501 13.815 4.31673 13.5945 4.53662C13.3742 4.75662 13.1023 4.86662 12.7787 4.86662Z" fill="black"/>
</svg>
