<svg width="17" height="17" viewBox="0 0 17 17" fill="none" xmlns="http://www.w3.org/2000/svg">
<path d="M5.24067 12.0385C4.78034 12.4297 4.29923 12.6051 3.79734 12.5649C3.29534 12.5247 2.86062 12.3492 2.49318 12.0385C2.12562 11.728 1.88018 11.3279 1.75684 10.8384C1.63351 10.3489 1.72851 9.8436 2.04184 9.32238L3.38851 7.07088C3.09118 6.82955 2.85495 6.53116 2.67984 6.17572C2.50473 5.82027 2.41717 5.43883 2.41717 5.03138C2.41717 4.29994 2.67573 3.67516 3.19284 3.15705C3.70995 2.63894 4.33351 2.37988 5.06351 2.37988C5.79062 2.37988 6.41345 2.63916 6.93201 3.15772C7.45067 3.67638 7.71001 4.29988 7.71001 5.02822C7.71001 5.75666 7.45067 6.38016 6.93201 6.89872C6.41345 7.41738 5.79062 7.67672 5.06351 7.67672C4.94773 7.67672 4.83195 7.66905 4.71617 7.65372C4.60029 7.63838 4.49206 7.61405 4.39151 7.58072L3.00734 9.90672C2.85979 10.1516 2.8134 10.3903 2.86818 10.6229C2.92295 10.8554 3.03845 11.0442 3.21467 11.1892C3.3909 11.3342 3.59679 11.415 3.83234 11.4315C4.0679 11.4481 4.29145 11.3659 4.50301 11.185L11.7635 4.94905C12.2266 4.55538 12.7119 4.37522 13.2193 4.40855C13.7269 4.44188 14.1637 4.61522 14.5298 4.92855C14.8961 5.24177 15.1395 5.64622 15.2602 6.14188C15.3808 6.63744 15.2858 7.14394 14.9752 7.66138L13.649 9.91688C13.9465 10.1555 14.1827 10.4523 14.3578 10.807C14.533 11.1619 14.6205 11.5434 14.6205 11.9515C14.6205 12.6821 14.3595 13.3062 13.8375 13.8237C13.3155 14.3412 12.6879 14.5999 11.9547 14.5999C11.2215 14.5999 10.5997 14.3413 10.0893 13.8242C9.5789 13.3071 9.32367 12.6835 9.32367 11.9535C9.32367 11.2264 9.5789 10.6036 10.0893 10.085C10.5997 9.56638 11.2217 9.30705 11.9553 9.30705C12.067 9.30705 12.1775 9.31194 12.2868 9.32172C12.3962 9.33149 12.5048 9.35172 12.6128 9.38238L13.9968 7.07705C14.1445 6.83472 14.1896 6.59677 14.132 6.36322C14.0745 6.12955 13.9576 5.94083 13.7813 5.79705C13.605 5.65327 13.3992 5.57305 13.1638 5.55638C12.9284 5.53972 12.7076 5.62049 12.5013 5.79872L5.24067 12.0385ZM5.06617 6.53722C5.48184 6.53722 5.83712 6.38949 6.13201 6.09405C6.42701 5.79872 6.57451 5.44261 6.57451 5.02572C6.57451 4.60872 6.42612 4.25344 6.12934 3.95988C5.83267 3.66622 5.4759 3.51938 5.05901 3.51938C4.64201 3.51938 4.28673 3.66705 3.99317 3.96238C3.69951 4.2576 3.55267 4.61444 3.55267 5.03288C3.55267 5.44855 3.70034 5.80316 3.99567 6.09672C4.2909 6.39038 4.64773 6.53722 5.06617 6.53722ZM11.9577 13.4644C12.3779 13.4644 12.7368 13.3167 13.0345 13.0214C13.3322 12.7262 13.481 12.3693 13.481 11.9509C13.481 11.5352 13.3322 11.1799 13.0345 10.885C12.737 10.59 12.3773 10.4425 11.9557 10.4425C11.5368 10.4425 11.1833 10.5909 10.8953 10.8877C10.6072 11.1844 10.4632 11.5412 10.4632 11.958C10.4632 12.375 10.6072 12.7303 10.8953 13.0239C11.1833 13.3175 11.5375 13.4644 11.9577 13.4644Z" fill="black"/>
</svg>
