<svg width="48" height="49" viewBox="0 0 48 49" fill="none" xmlns="http://www.w3.org/2000/svg">
<path d="M8.23828 6.68945H15.2383C15.6624 6.68947 16.0065 6.80448 16.293 7.02832L16.4121 7.13184C16.7385 7.43905 16.9779 7.85134 17.1162 8.39355V8.39453L18.459 14.4697C18.5243 14.9225 18.5216 15.3157 18.4609 15.6553L18.4316 15.7988C18.3469 16.1553 18.1736 16.4572 17.9053 16.7129L18.25 17.0752L17.9043 16.7129L17.8984 16.7188L12.8623 21.6855L12.583 21.9609L12.7832 22.2979C13.5218 23.5391 14.3003 24.7103 15.1182 25.8115L15.4707 26.2783C16.4174 27.5127 17.4692 28.6871 18.624 29.8018V29.8027C19.6897 30.9048 20.7971 31.916 21.9463 32.8359L22.4414 33.2246C23.7701 34.2476 25.1577 35.1418 26.6035 35.9072L26.9336 36.082L27.1953 35.8145L32.0049 30.8789L32.0146 30.8691C32.3073 30.5514 32.6272 30.3329 32.9756 30.2021L33.126 30.1514C33.4989 30.0408 33.8714 30.0106 34.248 30.0605L34.4092 30.0869L40.083 31.3428C40.552 31.4723 40.9285 31.6919 41.2256 31.999L41.3477 32.1367C41.6571 32.5104 41.8115 32.938 41.8115 33.4404V40.2627C41.8115 40.7871 41.6608 41.2153 41.3633 41.5713L41.2266 41.7188C40.836 42.1053 40.3631 42.2998 39.7744 42.2998C36.1811 42.2998 32.518 41.4901 28.7822 39.8594L28.0342 39.5225C24.2894 37.7827 20.7951 35.356 17.5518 32.2383L16.9062 31.6055C13.6968 28.396 11.1775 24.9336 9.34277 21.2188L8.98438 20.4727C7.12399 16.4732 6.20117 12.5629 6.20117 8.73828C6.2012 8.21421 6.35064 7.78361 6.64746 7.42383L6.78418 7.27441C7.1709 6.88557 7.64411 6.68945 8.23828 6.68945ZM8.63184 9.62988C8.68458 10.8454 8.8585 12.1177 9.15137 13.4463L9.28418 14.0195C9.65925 15.5623 10.2492 17.2744 11.0498 19.1533L11.3398 19.832L11.8623 19.3115L15.9004 15.2949L16.0938 15.1025L16.0371 14.8359L14.8994 9.50391L14.8145 9.1084H8.60938L8.63184 9.62988ZM39.3926 33.6621L38.9941 33.5791L34.0234 32.5508L33.751 32.4951L33.5596 32.6953L29.6338 36.8096L29.1523 37.3145L29.7852 37.6084C30.9737 38.1613 32.252 38.6246 33.6191 38.999L34.2109 39.1543C35.8038 39.5534 37.3561 39.7917 38.8672 39.8682L39.3926 39.8945V33.6621Z" fill="black" stroke="black"/>
</svg>
