<svg width="25" height="25" viewBox="0 0 25 25" fill="none" xmlns="http://www.w3.org/2000/svg">
<path d="M9.88708 7.11035C9.96273 7.11035 10.0251 7.12747 10.0844 7.16895L10.1429 7.21875L15.0873 12.1631C15.1145 12.1903 15.1343 12.2145 15.1488 12.2354L15.1781 12.2871V12.2881C15.1929 12.3236 15.2015 12.3634 15.2015 12.4121C15.2015 12.4366 15.1997 12.4589 15.1957 12.4795L15.1781 12.5361V12.5371C15.1723 12.551 15.163 12.5683 15.1488 12.5889L15.0873 12.6611L10.1185 17.6299C10.0408 17.7077 9.97362 17.7295 9.89294 17.7266L9.82458 17.7188C9.7802 17.7091 9.73802 17.6904 9.69568 17.6602L9.6322 17.6055C9.55408 17.5273 9.52283 17.4505 9.52283 17.3496C9.52283 17.2739 9.53991 17.2116 9.58142 17.1523L9.6322 17.0938L14.3138 12.4121L9.60681 7.70508C9.54868 7.64693 9.52159 7.59526 9.51306 7.53906L9.51013 7.48047C9.51271 7.40994 9.53135 7.34659 9.57654 7.2832L9.6322 7.21875C9.71013 7.14094 9.78649 7.11043 9.88708 7.11035Z" fill="black" stroke="black"/>
</svg>
