<svg width="17" height="17" viewBox="0 0 17 17" fill="none" xmlns="http://www.w3.org/2000/svg">
<path d="M8.50444 9.64724L6.59027 11.5612C6.70727 11.7475 6.77899 11.9268 6.80544 12.0994C6.83188 12.2718 6.8451 12.461 6.8451 12.6667C6.8451 13.3863 6.60438 13.9868 6.12294 14.4684C5.64149 14.9498 5.04105 15.1906 4.3216 15.1906C3.60227 15.1906 3.00238 14.9499 2.52194 14.4686C2.04149 13.9871 1.80127 13.3867 1.80127 12.6672C1.80127 11.9478 2.04138 11.3472 2.5216 10.8654C3.00171 10.3837 3.60155 10.1429 4.3211 10.1429C4.51666 10.1429 4.70949 10.17 4.8996 10.2242C5.0896 10.2785 5.28749 10.3585 5.49327 10.4642L7.39077 8.56674L5.45994 6.6359C5.27371 6.71946 5.08605 6.77724 4.89694 6.80924C4.70771 6.84124 4.51577 6.85724 4.3211 6.85724C3.60155 6.85724 3.00171 6.61657 2.5216 6.13524C2.04138 5.65379 1.80127 5.05335 1.80127 4.3339C1.80127 3.61446 2.04133 3.01385 2.52144 2.53207C3.00155 2.0504 3.60127 1.80957 4.3206 1.80957C5.04005 1.80957 5.64066 2.05029 6.12244 2.53174C6.60421 3.01329 6.8451 3.61385 6.8451 4.3334C6.8451 4.53918 6.83255 4.73385 6.80744 4.9174C6.78233 5.10107 6.7266 5.2749 6.64027 5.4389L14.4364 13.2349C14.7025 13.501 14.7637 13.8024 14.6198 14.1391C14.4758 14.4756 14.2162 14.6439 13.8409 14.6439C13.7339 14.6439 13.6299 14.6231 13.5288 14.5814C13.4278 14.5396 13.3382 14.4787 13.2599 14.3986L8.50444 9.64724ZM10.5389 7.71674L9.3711 6.5529L13.2599 2.66824C13.3382 2.58813 13.4278 2.52718 13.5288 2.4854C13.6299 2.44374 13.7339 2.4229 13.8409 2.4229C14.216 2.4229 14.4707 2.59329 14.6049 2.93407C14.7392 3.27496 14.6774 3.57424 14.4198 3.8319L10.5389 7.71674ZM4.32194 5.80957C4.73571 5.80957 5.08571 5.66679 5.37194 5.38124C5.65816 5.09579 5.80127 4.74624 5.80127 4.33257C5.80127 3.9189 5.65827 3.56963 5.37227 3.28474C5.08616 2.99974 4.73588 2.85724 4.32144 2.85724C3.90699 2.85724 3.55733 3.00001 3.27244 3.28557C2.98755 3.57101 2.8451 3.92057 2.8451 4.33424C2.8451 4.7479 2.98783 5.09718 3.27327 5.38207C3.55871 5.66707 3.90827 5.80957 4.32194 5.80957ZM8.53777 8.95124C8.64533 8.95124 8.73627 8.91401 8.8106 8.83957C8.88505 8.76513 8.92227 8.67418 8.92227 8.56674C8.92227 8.45929 8.88505 8.36835 8.8106 8.2939C8.73627 8.21946 8.64533 8.18224 8.53777 8.18224C8.43033 8.18224 8.33938 8.21946 8.26494 8.2939C8.1906 8.36835 8.15344 8.45929 8.15344 8.56674C8.15344 8.67418 8.1906 8.76513 8.26494 8.83957C8.33938 8.91401 8.43033 8.95124 8.53777 8.95124ZM4.32194 14.1429C4.73571 14.1429 5.08571 14.0001 5.37194 13.7146C5.65816 13.4291 5.80127 13.0796 5.80127 12.6659C5.80127 12.2522 5.65827 11.903 5.37227 11.6181C5.08616 11.3331 4.73588 11.1906 4.32144 11.1906C3.90699 11.1906 3.55733 11.3333 3.27244 11.6189C2.98755 11.9043 2.8451 12.2539 2.8451 12.6676C2.8451 13.0812 2.98783 13.4305 3.27327 13.7154C3.55871 14.0004 3.90827 14.1429 4.32194 14.1429Z" fill="black"/>
</svg>
