<svg width="48" height="49" viewBox="0 0 48 49" fill="none" xmlns="http://www.w3.org/2000/svg">
<path d="M23.9502 31.3215C25.0168 31.3215 25.9168 30.9632 26.6502 30.2465C27.3835 29.5299 27.7502 28.6382 27.7502 27.5715C27.7502 26.5049 27.3835 25.6132 26.6502 24.8965C25.9168 24.1799 25.0252 23.8215 23.9752 23.8215C22.9252 23.8215 22.0418 24.189 21.3252 24.924C20.6085 25.6587 20.2502 26.542 20.2502 27.574C20.2502 28.6057 20.6125 29.4882 21.3372 30.2215C22.0618 30.9549 22.9328 31.3215 23.9502 31.3215ZM7.10767 42.799C6.18767 42.799 5.39001 42.4612 4.71467 41.7855C4.03901 41.1102 3.70117 40.3125 3.70117 39.3925V15.751C3.70117 14.8277 4.03901 14.0272 4.71467 13.3495C5.39001 12.6715 6.18767 12.3325 7.10767 12.3325H15.7252V7.33253C15.7252 6.42086 16.063 5.62519 16.7387 4.94552C17.414 4.26586 18.2117 3.92603 19.1317 3.92603H28.8687C29.7887 3.92603 30.5863 4.26586 31.2617 4.94552C31.9373 5.62519 32.2752 6.42086 32.2752 7.33253V12.3325H40.8927C41.816 12.3325 42.6165 12.6715 43.2942 13.3495C43.9722 14.0272 44.3112 14.8277 44.3112 15.751V39.3925C44.3112 40.3125 43.9722 41.1102 43.2942 41.7855C42.6165 42.4612 41.816 42.799 40.8927 42.799H7.10767ZM7.10767 39.3925H40.8927V15.751H7.10767V39.3925ZM19.1317 12.3325H28.8687V7.33253H19.1317V12.3325Z" fill="#56129C"/>
</svg>
