<svg width="48" height="49" viewBox="0 0 48 49" fill="none" xmlns="http://www.w3.org/2000/svg">
<path d="M19.6045 43.3801C19.0152 43.3801 18.5507 43.1351 18.211 42.6451C17.871 42.1554 17.701 41.5953 17.701 40.9646V17.2366H9.752C9.21533 17.2366 8.77666 17.0273 8.436 16.6086C8.09533 16.1903 7.978 15.7158 8.084 15.1851C8.58466 12.6671 9.79433 10.5893 11.713 8.95162C13.6317 7.31395 15.8748 6.49512 18.4425 6.49512H27.8955C28.5595 6.49512 29.128 6.73178 29.601 7.20511C30.0743 7.67811 30.311 8.24261 30.311 8.89861V13.5951L36.565 7.24112C36.791 6.98278 37.0573 6.79395 37.364 6.67462C37.6707 6.55495 37.9895 6.49512 38.3205 6.49512H38.739C39.185 6.49512 39.5585 6.63678 39.8595 6.92012C40.1605 7.20345 40.311 7.56178 40.311 7.99512V22.7931C40.311 23.2344 40.1605 23.5948 39.8595 23.8741C39.5585 24.1534 39.185 24.2931 38.739 24.2931H38.3205C37.9895 24.2931 37.6707 24.2344 37.364 24.1171C37.0573 23.9998 36.791 23.8138 36.565 23.5591L30.311 17.1931V40.9646C30.311 41.6286 30.0743 42.1971 29.601 42.6701C29.128 43.1434 28.5582 43.3801 27.8915 43.3801H19.6045ZM21.1075 39.9616H26.8925V28.2911H21.1075V39.9616ZM21.1075 24.8841H26.8925V9.91362H18.4425C17.1425 9.91362 15.8905 10.2683 14.6865 10.9776C13.4825 11.6873 12.6265 12.6381 12.1185 13.8301H21.1075V24.8841Z" fill="black"/>
</svg>
