<svg width="48" height="49" viewBox="0 0 48 49" fill="none" xmlns="http://www.w3.org/2000/svg">
<path d="M24 4.68945C28.0482 4.68945 31.625 6.05875 34.748 8.81543L35.0488 9.08691C38.2138 11.9983 39.8115 15.9056 39.8115 20.8643C39.8115 22.7832 39.4145 24.6958 38.6143 26.6045L38.4492 26.9854C37.6423 28.7886 36.6554 30.5244 35.4893 32.1924L34.9785 32.9033C33.7559 34.5589 32.4402 36.1175 31.0322 37.5801L30.4238 38.2012C28.7723 39.8537 27.2302 41.3171 25.7988 42.5918L25.7881 42.6025C25.6113 42.7698 25.4136 42.9021 25.1934 43.001L24.9658 43.0889C24.6271 43.1987 24.3001 43.251 23.9844 43.251C23.7477 43.251 23.5084 43.2219 23.2656 43.1611L23.0225 43.0898C22.7193 42.989 22.457 42.8288 22.2305 42.6074L22.2217 42.5996L22.2119 42.5908L21.1133 41.5996C20.3672 40.9152 19.5941 40.1842 18.7949 39.4053L17.5771 38.2012C16.1425 36.7659 14.8001 35.2347 13.5508 33.6064L13.0215 32.9033C11.8041 31.2548 10.7681 29.5385 9.91309 27.7549L9.55762 26.9863C8.65056 24.9509 8.20117 22.9113 8.20117 20.8643C8.20121 16.0603 9.69849 12.243 12.666 9.3623L12.958 9.08691C16.1475 6.14909 19.8213 4.68949 24 4.68945ZM24 7.1084C20.3742 7.1084 17.2759 8.31582 14.7344 10.7295L14.4902 10.9668C11.8954 13.547 10.6075 16.8608 10.6074 20.8643C10.6074 23.3971 11.602 26.1758 13.5225 29.1885L13.9189 29.7939C16.0993 33.0414 19.3507 36.67 23.6592 40.6777L23.9961 40.9902L24.3359 40.6816C28.47 36.9312 31.6117 33.5071 33.7461 30.4102L34.1602 29.7959V29.7949C36.2892 26.5442 37.3926 23.5625 37.3926 20.8643C37.3925 16.986 36.1845 13.7549 33.75 11.2109L33.5098 10.9668C30.9228 8.39521 27.7425 7.10847 24 7.1084ZM23.9961 17.4053C24.7519 17.4054 25.3988 17.6332 25.9561 18.0957L26.1895 18.3086C26.7967 18.9132 27.0957 19.6326 27.0957 20.4961C27.0957 21.2522 26.8674 21.8972 26.4053 22.4512L26.1934 22.6836C25.589 23.2869 24.869 23.5839 24.0049 23.584C23.248 23.584 22.6018 23.3575 22.0479 22.8984L21.8164 22.6875C21.2137 22.0871 20.917 21.3692 20.917 20.5049C20.917 19.7479 21.1437 19.1003 21.6035 18.543L21.8145 18.3096C22.415 17.7033 23.1328 17.4053 23.9961 17.4053Z" fill="black" stroke="black"/>
</svg>
