<svg width="25" height="25" viewBox="0 0 25 25" fill="none" xmlns="http://www.w3.org/2000/svg">
<path d="M3.55371 6.24219V19.4463H21.4463V6.63867L20.6709 7.14844L12.7148 12.3867L12.5566 12.4619C12.5535 12.4629 12.5367 12.4678 12.5 12.4678L12.4434 12.4619C12.3977 12.4439 12.3449 12.4186 12.2842 12.3867L4.55371 7.2959V6.89648L12.2266 11.9219L12.5 12.1016L12.7734 11.9229L21.1201 6.47266L22.1309 5.81152C22.1465 5.88933 22.1553 5.96973 22.1553 6.05371V18.9463C22.1553 19.2274 22.0692 19.4715 21.8809 19.6943L21.7939 19.7891C21.5451 20.0371 21.2703 20.1494 20.9463 20.1494H4.05371C3.77205 20.1494 3.52753 20.0638 3.30469 19.876L3.21094 19.7891L3.12402 19.6953C2.93636 19.4725 2.85059 19.2279 2.85059 18.9463V6.05371C2.8506 5.96519 2.85965 5.88047 2.87695 5.79883L3.55371 6.24219ZM4.05371 4.84473H20.9463C21.2293 4.84473 21.4754 4.93061 21.6992 5.11914L21.793 5.20703H21.7939C21.9036 5.31669 21.9851 5.43216 22.0439 5.55371H2.96094C3.00307 5.46613 3.05694 5.38183 3.125 5.30078L3.21094 5.20605H3.21191C3.45988 4.95718 3.73264 4.84476 4.05371 4.84473Z" fill="black" stroke="black"/>
</svg>
