<svg width="48" height="49" viewBox="0 0 48 49" fill="none" xmlns="http://www.w3.org/2000/svg">
<path d="M7.10742 8.68945H40.8926C41.5795 8.68945 42.1821 8.90553 42.7158 9.35352L42.9404 9.55957V9.56055C43.5285 10.1484 43.8115 10.8233 43.8115 11.6084V37.3926C43.8115 38.0762 43.5954 38.6763 43.1475 39.208L42.9414 39.4316C42.3537 40.0177 41.6783 40.2998 40.8926 40.2998H7.10742C6.42342 40.2998 5.82356 40.084 5.29199 39.6377L5.06836 39.4326C4.4825 38.847 4.20117 38.1744 4.20117 37.3926V11.6084C4.20117 10.9209 4.41684 10.3179 4.86328 9.78418L5.06836 9.55957H5.06934C5.65497 8.97166 6.32636 8.68951 7.10742 8.68945ZM6.60742 11.7139V37.8926H41.3926V13.7051L40.6182 14.2158L24.6699 24.7148C24.6041 24.7495 24.5416 24.7815 24.4814 24.8096L24.2969 24.8887C24.2299 24.915 24.1343 24.9355 24 24.9355C23.9327 24.9355 23.8753 24.9302 23.8262 24.9219L23.7031 24.8887C23.5897 24.8441 23.4643 24.7858 23.3262 24.7129L7.60742 14.3633V12.3691L23.7266 22.9258L24 23.1055L24.2734 22.9268L40.9658 12.0264L42.373 11.1084H5.68164L6.60742 11.7139Z" fill="black" stroke="black"/>
</svg>
