<svg width="17" height="17" viewBox="0 0 17 17" fill="none" xmlns="http://www.w3.org/2000/svg">
<path d="M4.1063 7.79535C3.88853 7.73913 3.68375 7.66024 3.49197 7.55868C3.30019 7.45713 3.13052 7.3299 2.98297 7.17701L2.63214 7.31901C2.51314 7.36613 2.39753 7.37146 2.2853 7.33501C2.17297 7.29857 2.08697 7.22663 2.0273 7.11918L1.9183 6.93968C1.85708 6.84335 1.83336 6.73574 1.84714 6.61685C1.86091 6.49807 1.91486 6.39579 2.00897 6.31001L2.33047 6.00685C2.27491 5.79351 2.24714 5.58507 2.24714 5.38151C2.24714 5.17807 2.27491 4.96901 2.33047 4.75435L2.00897 4.44435C1.91486 4.36057 1.86091 4.25657 1.84714 4.13235C1.83336 4.00801 1.85691 3.8974 1.9178 3.80051L2.00497 3.65535C2.06319 3.54735 2.15253 3.47257 2.27297 3.43101C2.39341 3.38946 2.51491 3.39224 2.63747 3.43935L2.98297 3.58135C3.13319 3.42846 3.3033 3.30118 3.4933 3.19951C3.68341 3.09796 3.88764 3.01924 4.10597 2.96335L4.15114 2.59651C4.17336 2.46374 4.23258 2.35301 4.3288 2.26435C4.42502 2.17568 4.53919 2.13135 4.6713 2.13135H4.82147C4.95036 2.13135 5.06275 2.17562 5.15864 2.26418C5.25452 2.35274 5.31458 2.46218 5.3388 2.59251L5.38347 2.96301C5.59858 3.01924 5.80202 3.09813 5.9938 3.19968C6.18558 3.30124 6.35525 3.42846 6.5028 3.58135L6.85364 3.43935C6.97175 3.39224 7.0878 3.38668 7.2018 3.42268C7.3158 3.45868 7.40325 3.53068 7.46414 3.63868L7.57214 3.80051C7.63036 3.8974 7.65325 4.00885 7.6408 4.13485C7.62836 4.26074 7.57369 4.36524 7.4768 4.44835L7.1388 4.75301C7.19702 4.9569 7.22614 5.16351 7.22614 5.37285C7.22614 5.58218 7.19702 5.79301 7.1388 6.00535L7.4768 6.31401C7.57102 6.39713 7.62502 6.49885 7.6388 6.61918C7.65258 6.73963 7.63036 6.85251 7.57214 6.95785L7.4808 7.10251C7.41991 7.21085 7.32991 7.28579 7.2108 7.32735C7.09169 7.3689 6.97397 7.36613 6.85764 7.31901L6.5028 7.17701C6.35525 7.34101 6.1858 7.47107 5.99447 7.56718C5.80303 7.66318 5.59947 7.73913 5.3838 7.79501L5.3388 8.16051C5.31391 8.29418 5.25358 8.40535 5.1578 8.49401C5.06202 8.58268 4.94847 8.62701 4.81714 8.62701H4.66797C4.53664 8.62701 4.42314 8.58329 4.32747 8.49585C4.2318 8.40851 4.17303 8.29851 4.15114 8.16585L4.1063 7.79535ZM4.7418 6.88868C5.15769 6.88868 5.51375 6.7414 5.80997 6.44685C6.10619 6.1524 6.2543 5.79663 6.2543 5.37951C6.2543 4.9624 6.10625 4.60651 5.81014 4.31185C5.51402 4.01707 5.15758 3.86968 4.7408 3.86968C4.32391 3.86968 3.96814 4.01751 3.67347 4.31318C3.3788 4.60874 3.23147 4.96451 3.23147 5.38051C3.23147 5.79651 3.37919 6.15185 3.67464 6.44651C3.97019 6.74129 4.32591 6.88868 4.7418 6.88868ZM11.0238 15.4125C10.7079 15.3347 10.4072 15.2141 10.1216 15.0505C9.83619 14.8871 9.58947 14.6751 9.38147 14.4147L8.94814 14.552C8.8148 14.5965 8.6808 14.5943 8.54614 14.5457C8.41147 14.497 8.30702 14.4107 8.2328 14.2867L8.0968 14.0547C8.01991 13.9307 7.99258 13.7968 8.0148 13.653C8.03702 13.5092 8.10369 13.3876 8.2148 13.288L8.54814 12.9893C8.45125 12.6845 8.4028 12.3698 8.4028 12.0455C8.4028 11.7211 8.45125 11.4078 8.54814 11.1057L8.2148 10.8223C8.10369 10.7335 8.03702 10.6147 8.0148 10.466C7.99258 10.3173 8.02058 10.1811 8.0988 10.0572L8.24947 9.80435C8.31525 9.68301 8.41202 9.60013 8.5398 9.55568C8.66758 9.51124 8.79814 9.50568 8.93147 9.53901L9.38147 9.65968C9.60058 9.41035 9.85008 9.20179 10.13 9.03401C10.41 8.86635 10.7085 8.74785 11.0256 8.67851L11.1411 8.19518C11.174 8.06185 11.2432 7.95074 11.3488 7.86185C11.4544 7.77296 11.5794 7.72851 11.7238 7.72851H12.0238C12.1682 7.72851 12.296 7.77296 12.4071 7.86185C12.5182 7.95074 12.5905 8.06185 12.6238 8.19518L12.7405 8.67851C13.076 8.72563 13.381 8.83646 13.6555 9.01101C13.9298 9.18568 14.1765 9.4019 14.3956 9.65968L14.8456 9.53901C14.9816 9.50568 15.1135 9.51401 15.2413 9.56401C15.3691 9.61401 15.4659 9.70013 15.5316 9.82235L15.6803 10.0557C15.7572 10.1779 15.7817 10.3112 15.754 10.4557C15.7262 10.6001 15.6567 10.7223 15.5456 10.8223L15.229 11.1057C15.3259 11.4078 15.3743 11.7211 15.3743 12.0455C15.3743 12.3698 15.3259 12.6845 15.229 12.9893L15.5623 13.2867C15.6734 13.3858 15.7401 13.5076 15.7623 13.652C15.7845 13.7965 15.7572 13.9302 15.6803 14.0533L15.5483 14.288C15.4714 14.4111 15.3656 14.4998 15.231 14.554C15.0963 14.6082 14.9567 14.6076 14.8123 14.552L14.3956 14.4147C14.1876 14.6862 13.9416 14.901 13.6575 15.0588C13.3732 15.2168 13.0676 15.3347 12.7405 15.4125L12.6238 15.8958C12.5905 16.0292 12.521 16.1403 12.4155 16.2292C12.3099 16.3181 12.1849 16.3625 12.0405 16.3625H11.7405C11.596 16.3625 11.4682 16.3181 11.3571 16.2292C11.246 16.1403 11.1738 16.0292 11.1405 15.8958L11.0238 15.4125ZM11.8886 14.3263C12.5237 14.3263 13.0623 14.1049 13.5043 13.662C13.9463 13.2191 14.1673 12.6805 14.1673 12.0462C14.1673 11.4118 13.9462 10.873 13.504 10.4297C13.0617 9.98635 12.5239 9.76468 11.8905 9.76468C11.254 9.76468 10.7148 9.98618 10.2728 10.4292C9.8308 10.8723 9.6098 11.4111 9.6098 12.0455C9.6098 12.682 9.8308 13.2212 10.2728 13.6632C10.7148 14.1053 11.2534 14.3263 11.8886 14.3263Z" fill="black"/>
</svg>
