<svg width="17" height="17" viewBox="0 0 17 17" fill="none" xmlns="http://www.w3.org/2000/svg">
<path d="M8.10215 6.06837L6.75865 4.70821C6.64542 4.59487 6.58881 4.4616 6.58881 4.30837C6.58881 4.15515 6.64542 4.02187 6.75865 3.90854L8.10215 2.54837C8.21548 2.43515 8.34876 2.37854 8.50198 2.37854C8.6552 2.37854 8.78848 2.43515 8.90181 2.54837L10.262 3.90854C10.3752 4.02187 10.4318 4.15515 10.4318 4.30837C10.4318 4.4616 10.3752 4.59487 10.262 4.70821L8.90181 6.06837C8.78848 6.1816 8.6552 6.23821 8.50198 6.23821C8.34876 6.23821 8.21548 6.1816 8.10215 6.06837ZM1.61881 14.4662C1.45581 14.4662 1.32043 14.4123 1.21265 14.3045C1.10498 14.1969 1.05115 14.0615 1.05115 13.8984V11.7317C1.05115 11.3909 1.17231 11.1 1.41465 10.8589C1.65709 10.6179 1.94737 10.4974 2.28548 10.4974H4.65548C4.84959 10.4974 5.02948 10.5419 5.19515 10.631C5.3607 10.7202 5.50192 10.844 5.61881 11.0027C5.94637 11.4774 6.36415 11.8452 6.87215 12.106C7.38004 12.3669 7.92265 12.4974 8.49998 12.4974C9.07465 12.4974 9.61659 12.3669 10.1258 12.106C10.6351 11.8452 11.0605 11.4774 11.4018 11.0027C11.5134 10.844 11.6498 10.7202 11.8111 10.631C11.9726 10.5419 12.1517 10.4974 12.3485 10.4974H14.7185C15.0593 10.4974 15.3502 10.6179 15.5913 10.8589C15.8323 11.1 15.9528 11.3909 15.9528 11.7317V13.8984C15.9528 14.0615 15.899 14.1969 15.7913 14.3045C15.6835 14.4123 15.5481 14.4662 15.3851 14.4662H12.0518C11.8887 14.4662 11.7533 14.4123 11.6456 14.3045C11.5379 14.1969 11.484 14.0615 11.484 13.8984V12.4589C11.0813 12.8123 10.6236 13.0864 10.111 13.281C9.59831 13.4757 9.06131 13.573 8.49998 13.573C7.94131 13.573 7.40776 13.4764 6.89931 13.283C6.39087 13.0897 5.93109 12.815 5.51998 12.4589V13.8984C5.51998 14.0615 5.46609 14.1969 5.35831 14.3045C5.25054 14.4123 5.11515 14.4662 4.95215 14.4662H1.61881ZM3.16665 9.21104C2.65865 9.21104 2.22143 9.02782 1.85498 8.66137C1.48865 8.29504 1.30548 7.85654 1.30548 7.34587C1.30548 6.82943 1.48865 6.3901 1.85498 6.02787C2.22143 5.66576 2.65865 5.48471 3.16665 5.48471C3.68576 5.48471 4.12643 5.66576 4.48865 6.02787C4.85076 6.3901 5.03181 6.82943 5.03181 7.34587C5.03181 7.85654 4.85076 8.29504 4.48865 8.66137C4.12643 9.02782 3.68576 9.21104 3.16665 9.21104ZM13.8333 9.21104C13.3253 9.21104 12.8881 9.02782 12.5216 8.66137C12.1553 8.29504 11.9721 7.85654 11.9721 7.34587C11.9721 6.82943 12.1553 6.3901 12.5216 6.02787C12.8881 5.66576 13.3253 5.48471 13.8333 5.48471C14.3524 5.48471 14.7931 5.66576 15.1553 6.02787C15.5174 6.3901 15.6985 6.82943 15.6985 7.34587C15.6985 7.85654 15.5174 8.29504 15.1553 8.66137C14.7931 9.02782 14.3524 9.21104 13.8333 9.21104Z" fill="black"/>
</svg>
