<svg width="48" height="49" viewBox="0 0 48 49" fill="none" xmlns="http://www.w3.org/2000/svg">
<path d="M22.8065 16.33L18.776 12.2495C18.4363 11.9095 18.2665 11.5097 18.2665 11.05C18.2665 10.5903 18.4363 10.1905 18.776 9.8505L22.8065 5.77C23.1465 5.43033 23.5463 5.2605 24.006 5.2605C24.4657 5.2605 24.8655 5.43033 25.2055 5.77L29.286 9.8505C29.6257 10.1905 29.7955 10.5903 29.7955 11.05C29.7955 11.5097 29.6257 11.9095 29.286 12.2495L25.2055 16.33C24.8655 16.6697 24.4657 16.8395 24.006 16.8395C23.5463 16.8395 23.1465 16.6697 22.8065 16.33ZM3.3565 41.5235C2.8675 41.5235 2.46134 41.3618 2.138 41.0385C1.815 40.7155 1.6535 40.3093 1.6535 39.82V33.32C1.6535 32.2977 2.017 31.4248 2.744 30.7015C3.47134 29.9785 4.34217 29.617 5.3565 29.617H12.4665C13.0488 29.617 13.5885 29.7507 14.0855 30.018C14.5822 30.2853 15.0058 30.657 15.3565 31.133C16.3392 32.557 17.5925 33.6603 19.1165 34.443C20.6402 35.2257 22.268 35.617 24 35.617C25.724 35.617 27.3498 35.2257 28.8775 34.443C30.4055 33.6603 31.6815 32.557 32.7055 31.133C33.0402 30.657 33.4495 30.2853 33.9335 30.018C34.4178 29.7507 34.9552 29.617 35.5455 29.617H42.6555C43.6778 29.617 44.5507 29.9785 45.274 30.7015C45.997 31.4248 46.3585 32.2977 46.3585 33.32V39.82C46.3585 40.3093 46.197 40.7155 45.874 41.0385C45.5507 41.3618 45.1445 41.5235 44.6555 41.5235H34.6555C34.1662 41.5235 33.76 41.3618 33.437 41.0385C33.1137 40.7155 32.952 40.3093 32.952 39.82V35.5015C31.744 36.5618 30.371 37.384 28.833 37.968C27.295 38.552 25.684 38.844 24 38.844C22.324 38.844 20.7233 38.554 19.198 37.974C17.6727 37.394 16.2933 36.5698 15.06 35.5015V39.82C15.06 40.3093 14.8983 40.7155 14.575 41.0385C14.2517 41.3618 13.8455 41.5235 13.3565 41.5235H3.3565ZM8 25.758C6.476 25.758 5.16434 25.2083 4.065 24.109C2.966 23.01 2.4165 21.6945 2.4165 20.1625C2.4165 18.6132 2.966 17.2952 4.065 16.2085C5.16434 15.1222 6.476 14.579 8 14.579C9.55734 14.579 10.8793 15.1222 11.966 16.2085C13.0523 17.2952 13.5955 18.6132 13.5955 20.1625C13.5955 21.6945 13.0523 23.01 11.966 24.109C10.8793 25.2083 9.55734 25.758 8 25.758ZM40 25.758C38.476 25.758 37.1643 25.2083 36.065 24.109C34.966 23.01 34.4165 21.6945 34.4165 20.1625C34.4165 18.6132 34.966 17.2952 36.065 16.2085C37.1643 15.1222 38.476 14.579 40 14.579C41.5573 14.579 42.8793 15.1222 43.966 16.2085C45.0523 17.2952 45.5955 18.6132 45.5955 20.1625C45.5955 21.6945 45.0523 23.01 43.966 24.109C42.8793 25.2083 41.5573 25.758 40 25.758Z" fill="black"/>
</svg>
