<svg width="17" height="16" viewBox="0 0 17 16" fill="none" xmlns="http://www.w3.org/2000/svg">
<path d="M8.10227 5.13075L6.75877 3.77058C6.64555 3.65725 6.58894 3.52397 6.58894 3.37075C6.58894 3.21753 6.64555 3.08425 6.75877 2.97092L8.10227 1.61075C8.2156 1.49753 8.34888 1.44092 8.5021 1.44092C8.65532 1.44092 8.7886 1.49753 8.90194 1.61075L10.2621 2.97092C10.3753 3.08425 10.4319 3.21753 10.4319 3.37075C10.4319 3.52397 10.3753 3.65725 10.2621 3.77058L8.90194 5.13075C8.7886 5.24397 8.65532 5.30058 8.5021 5.30058C8.34888 5.30058 8.2156 5.24397 8.10227 5.13075ZM1.61894 13.5286C1.45594 13.5286 1.32055 13.4747 1.21277 13.3669C1.1051 13.2593 1.05127 13.1239 1.05127 12.9608V10.7941C1.05127 10.4533 1.17244 10.1624 1.41477 9.92125C1.65721 9.68025 1.94749 9.55975 2.2856 9.55975H4.6556C4.84971 9.55975 5.0296 9.60431 5.19527 9.69342C5.36082 9.78253 5.50205 9.90642 5.61894 10.0651C5.94649 10.5398 6.36427 10.9075 6.87227 11.1684C7.38016 11.4293 7.92277 11.5598 8.5001 11.5598C9.07477 11.5598 9.61671 11.4293 10.1259 11.1684C10.6353 10.9075 11.0606 10.5398 11.4019 10.0651C11.5135 9.90642 11.6499 9.78253 11.8113 9.69342C11.9727 9.60431 12.1518 9.55975 12.3486 9.55975H14.7186C15.0594 9.55975 15.3503 9.68025 15.5914 9.92125C15.8324 10.1624 15.9529 10.4533 15.9529 10.7941V12.9608C15.9529 13.1239 15.8991 13.2593 15.7914 13.3669C15.6837 13.4747 15.5483 13.5286 15.3853 13.5286H12.0519C11.8888 13.5286 11.7534 13.4747 11.6458 13.3669C11.538 13.2593 11.4841 13.1239 11.4841 12.9608V11.5213C11.0814 11.8747 10.6238 12.1488 10.1111 12.3434C9.59844 12.5381 9.06144 12.6354 8.5001 12.6354C7.94144 12.6354 7.40788 12.5388 6.89944 12.3454C6.39099 12.1521 5.93121 11.8774 5.5201 11.5213V12.9608C5.5201 13.1239 5.46621 13.2593 5.35844 13.3669C5.25066 13.4747 5.11527 13.5286 4.95227 13.5286H1.61894ZM3.16677 8.27342C2.65877 8.27342 2.22155 8.0902 1.8551 7.72375C1.48877 7.35742 1.3056 6.91892 1.3056 6.40825C1.3056 5.89181 1.48877 5.45247 1.8551 5.09025C2.22155 4.72814 2.65877 4.54708 3.16677 4.54708C3.68588 4.54708 4.12655 4.72814 4.48877 5.09025C4.85088 5.45247 5.03194 5.89181 5.03194 6.40825C5.03194 6.91892 4.85088 7.35742 4.48877 7.72375C4.12655 8.0902 3.68588 8.27342 3.16677 8.27342ZM13.8334 8.27342C13.3254 8.27342 12.8882 8.0902 12.5218 7.72375C12.1554 7.35742 11.9723 6.91892 11.9723 6.40825C11.9723 5.89181 12.1554 5.45247 12.5218 5.09025C12.8882 4.72814 13.3254 4.54708 13.8334 4.54708C14.3525 4.54708 14.7932 4.72814 15.1554 5.09025C15.5175 5.45247 15.6986 5.89181 15.6986 6.40825C15.6986 6.91892 15.5175 7.35742 15.1554 7.72375C14.7932 8.0902 14.3525 8.27342 13.8334 8.27342Z" fill="black"/>
</svg>
