<svg width="48" height="49" viewBox="0 0 48 49" fill="none" xmlns="http://www.w3.org/2000/svg">
<path d="M3.1825 33.846V28.826C3.1825 27.6073 3.49933 26.4978 4.133 25.4975C4.76633 24.4975 5.63866 23.7558 6.74999 23.2725C8.77399 22.3898 10.846 21.6631 12.966 21.0925C15.086 20.5218 17.2625 20.2365 19.4955 20.2365C21.2268 20.2365 22.936 20.4115 24.623 20.7614C26.31 21.1115 27.9573 21.5865 29.565 22.1865C29.1347 22.6008 28.734 23.0376 28.363 23.497C27.9923 23.956 27.6713 24.4466 27.4 24.969C26.1237 24.5193 24.825 24.1878 23.504 23.9745C22.183 23.7615 20.8447 23.655 19.489 23.655C17.5 23.655 15.5595 23.901 13.6675 24.393C11.7755 24.885 9.95333 25.519 8.201 26.295C7.693 26.525 7.29933 26.8735 7.01999 27.3405C6.74066 27.8078 6.601 28.318 6.601 28.871V30.4395H25.6315C25.5902 31.0115 25.5962 31.5813 25.6495 32.149C25.7028 32.7166 25.7867 33.2823 25.901 33.846H3.1825ZM19.4875 17.1865C17.3435 17.1865 15.5327 16.4475 14.055 14.9695C12.577 13.4915 11.838 11.6806 11.838 9.53695C11.838 7.39295 12.5763 5.58212 14.053 4.10445C15.5293 2.62645 17.3428 1.88745 19.4935 1.88745C21.6335 1.88745 23.4423 2.62578 24.92 4.10245C26.398 5.57878 27.137 7.39228 27.137 9.54295C27.137 11.6826 26.398 13.4915 24.92 14.9695C23.4423 16.4475 21.6315 17.1865 19.4875 17.1865ZM19.486 13.9115C20.7177 13.9115 21.755 13.4913 22.598 12.651C23.4407 11.811 23.862 10.7763 23.862 9.54695C23.862 8.31728 23.4417 7.27912 22.601 6.43245C21.7607 5.58579 20.7255 5.16245 19.4955 5.16245C18.2622 5.16245 17.2235 5.58512 16.3795 6.43045C15.5352 7.27612 15.113 8.31362 15.113 9.54295C15.113 10.7723 15.5338 11.8078 16.3755 12.6495C17.2175 13.4908 18.2543 13.9115 19.486 13.9115ZM37.924 9.54295C37.924 11.675 37.1832 13.4818 35.7015 14.9635C34.2202 16.4455 32.412 17.1865 30.277 17.1865C29.838 17.1865 29.4225 17.1678 29.0305 17.1305C28.6385 17.0931 28.2265 16.9871 27.7945 16.8125C28.7105 15.8365 29.3538 14.7121 29.7245 13.4395C30.0952 12.1668 30.2805 10.8681 30.2805 9.54345C30.2805 8.21912 30.0785 6.92828 29.6745 5.67095C29.2705 4.41395 28.6438 3.27745 27.7945 2.26145C28.2025 2.10745 28.6065 2.00662 29.0065 1.95895C29.4065 1.91128 29.8343 1.88745 30.29 1.88745C32.4133 1.88745 34.2165 2.62762 35.6995 4.10795C37.1825 5.58862 37.924 7.40028 37.924 9.54295ZM38.269 41.095C35.594 41.095 33.3127 40.1493 31.425 38.258C29.5373 36.3666 28.5935 34.0793 28.5935 31.396C28.5935 28.7066 29.5392 26.4165 31.4305 24.5255C33.3218 22.6341 35.6092 21.6885 38.2925 21.6885C40.9818 21.6885 43.272 22.6335 45.163 24.5235C47.0543 26.4138 48 28.7125 48 31.4195C48 34.0945 47.055 36.3758 45.165 38.2635C43.2747 40.1511 40.976 41.095 38.269 41.095ZM36.4085 35.6235L43.2285 28.78L42.0465 27.6104L36.3965 33.2605L33.5965 30.4104L32.415 31.5919L36.4085 35.6235Z" fill="black"/>
</svg>
