<svg width="49" height="48" viewBox="0 0 49 48" fill="none" xmlns="http://www.w3.org/2000/svg">
<path d="M33.8602 41.299C31.6938 41.299 29.8393 40.5279 28.2967 38.9855C26.754 37.4429 25.9827 35.5885 25.9827 33.4225C25.9827 31.2329 26.7538 29.362 28.2962 27.81C29.8388 26.2584 31.6932 25.4825 33.8592 25.4825C36.0488 25.4825 37.9217 26.2582 39.4777 27.8095C41.0333 29.3609 41.8112 31.2315 41.8112 33.4215C41.8112 34.1919 41.6967 34.9314 41.4677 35.64C41.2387 36.3487 40.9317 37.0014 40.5467 37.598L45.3037 42.44C45.486 42.6227 45.6165 42.8102 45.6952 43.0025C45.7738 43.1949 45.8132 43.3957 45.8132 43.605C45.8132 43.8147 45.7738 44.0232 45.6952 44.2305C45.6165 44.4379 45.486 44.6367 45.3037 44.827C45.113 45.0097 44.9208 45.1404 44.7272 45.219C44.5335 45.2977 44.3335 45.337 44.1272 45.337C43.9208 45.337 43.7112 45.2977 43.4982 45.219C43.2852 45.1404 43.0913 45.0097 42.9167 44.827L38.0862 40.0465C37.4862 40.4602 36.8267 40.7724 36.1077 40.983C35.3887 41.1937 34.6395 41.299 33.8602 41.299ZM11.0222 41.361C8.85083 41.361 6.99416 40.5897 5.45216 39.047C3.91016 37.5047 3.13916 35.6505 3.13916 33.4845C3.13916 31.2492 3.91049 29.3567 5.45316 27.807C6.99549 26.2574 8.84966 25.4825 11.0157 25.4825C13.251 25.4825 15.1435 26.2565 16.6932 27.8045C18.2428 29.3529 19.0177 31.244 19.0177 33.478C19.0177 35.6494 18.2437 37.506 16.6957 39.048C15.1473 40.59 13.2562 41.361 11.0222 41.361ZM11.0192 37.9545C12.3108 37.9545 13.401 37.5164 14.2897 36.64C15.1787 35.764 15.6232 34.7109 15.6232 33.4805C15.6232 32.1892 15.1788 31.0992 14.2902 30.2105C13.4018 29.3215 12.3107 28.877 11.0167 28.877C9.77766 28.877 8.72283 29.3214 7.85216 30.21C6.98116 31.0984 6.54566 32.1894 6.54566 33.483C6.54566 34.7157 6.98216 35.769 7.85516 36.643C8.72783 37.5174 9.78249 37.9545 11.0192 37.9545ZM33.8097 37.9545C35.0953 37.9545 36.1825 37.5164 37.0712 36.64C37.9602 35.764 38.4047 34.7109 38.4047 33.4805C38.4047 32.1892 37.9602 31.0992 37.0712 30.2105C36.1825 29.3215 35.0933 28.877 33.8037 28.877C32.569 28.877 31.5143 29.3214 30.6397 30.21C29.7647 31.0984 29.3272 32.1894 29.3272 33.483C29.3272 34.7157 29.7645 35.769 30.6392 36.643C31.5135 37.5174 32.5703 37.9545 33.8097 37.9545ZM11.0222 18.5795C8.85083 18.5795 6.99416 17.807 5.45216 16.262C3.91016 14.717 3.13916 12.8597 3.13916 10.69C3.13916 8.46336 3.91049 6.57319 5.45316 5.01953C6.99549 3.46586 8.84966 2.68903 11.0157 2.68903C13.251 2.68903 15.1435 3.46536 16.6932 5.01802C18.2428 6.57069 19.0177 8.45986 19.0177 10.6855C19.0177 12.8605 18.2437 14.7199 16.6957 16.2635C15.1473 17.8075 13.2562 18.5795 11.0222 18.5795ZM33.8147 18.5795C31.6397 18.5795 29.7803 17.807 28.2367 16.262C26.6927 14.717 25.9207 12.8597 25.9207 10.69C25.9207 8.46336 26.6932 6.57319 28.2382 5.01953C29.7832 3.46586 31.6405 2.68903 33.8102 2.68903C36.0368 2.68903 37.927 3.46536 39.4807 5.01802C41.0343 6.57069 41.8112 8.45986 41.8112 10.6855C41.8112 12.8605 41.0348 14.7199 39.4822 16.2635C37.9295 17.8075 36.0403 18.5795 33.8147 18.5795ZM11.0192 15.173C12.3108 15.173 13.401 14.7359 14.2897 13.8615C15.1787 12.9875 15.6232 11.9304 15.6232 10.69C15.6232 9.40469 15.1788 8.31769 14.2902 7.42903C13.4018 6.54002 12.3107 6.09552 11.0167 6.09552C9.77766 6.09552 8.72283 6.54002 7.85216 7.42903C6.98116 8.31769 6.54566 9.40469 6.54566 10.69C6.54566 11.9304 6.98216 12.9875 7.85516 13.8615C8.72783 14.7359 9.78249 15.173 11.0192 15.173ZM33.8097 15.173C35.0953 15.173 36.1825 14.7359 37.0712 13.8615C37.9602 12.9875 38.4047 11.9304 38.4047 10.69C38.4047 9.40469 37.9602 8.31769 37.0712 7.42903C36.1825 6.54002 35.0933 6.09552 33.8037 6.09552C32.569 6.09552 31.5143 6.54002 30.6397 7.42903C29.7647 8.31769 29.3272 9.40469 29.3272 10.69C29.3272 11.9304 29.7645 12.9875 30.6392 13.8615C31.5135 14.7359 32.5703 15.173 33.8097 15.173Z" fill="black"/>
</svg>
