<svg width="17" height="16" viewBox="0 0 17 16" fill="none" xmlns="http://www.w3.org/2000/svg">
<path d="M5.74833 7.96669C5.60722 7.96669 5.48944 8.01458 5.395 8.11036C5.30055 8.20625 5.25333 8.32503 5.25333 8.46669V10.8834C5.25333 11.025 5.3015 11.1438 5.39783 11.2395C5.49427 11.3354 5.61305 11.3834 5.75416 11.3834C5.89539 11.3834 6.01388 11.3354 6.10966 11.2395C6.20544 11.1438 6.25333 11.025 6.25333 10.8834V8.46669C6.25333 8.32503 6.20444 8.20625 6.10666 8.11036C6.009 8.01458 5.88955 7.96669 5.74833 7.96669ZM11.2458 4.38336C11.1046 4.38336 10.9868 4.43125 10.8923 4.52703C10.7979 4.62292 10.7507 4.74169 10.7507 4.88336V10.8834C10.7507 11.025 10.7989 11.1438 10.8953 11.2395C10.9917 11.3354 11.1104 11.3834 11.2517 11.3834C11.3928 11.3834 11.5112 11.3354 11.607 11.2395C11.7028 11.1438 11.7507 11.025 11.7507 10.8834V4.88336C11.7507 4.74169 11.7018 4.62292 11.6042 4.52703C11.5064 4.43125 11.3869 4.38336 11.2458 4.38336ZM8.497 9.41669C8.35455 9.41669 8.23611 9.46458 8.14166 9.56036C8.04722 9.65625 8 9.77503 8 9.91669V10.8834C8 11.025 8.04822 11.1438 8.14466 11.2395C8.241 11.3354 8.36044 11.3834 8.503 11.3834C8.64544 11.3834 8.76389 11.3354 8.85833 11.2395C8.95277 11.1438 9 11.025 9 10.8834V9.91669C9 9.77503 8.95177 9.65625 8.85533 9.56036C8.759 9.46458 8.63955 9.41669 8.497 9.41669ZM3.53583 14.0997C3.22916 14.0997 2.96327 13.9871 2.73816 13.7619C2.51294 13.5368 2.40033 13.2709 2.40033 12.9642V3.03586C2.40033 2.72808 2.51294 2.46125 2.73816 2.23536C2.96327 2.00936 3.22916 1.89636 3.53583 1.89636H13.4642C13.7719 1.89636 14.0388 2.00936 14.2647 2.23536C14.4907 2.46125 14.6037 2.72808 14.6037 3.03586V12.9642C14.6037 13.2709 14.4907 13.5368 14.2647 13.7619C14.0388 13.9871 13.7719 14.0997 13.4642 14.0997H3.53583ZM3.53583 12.9642H13.4642V3.03586H3.53583V12.9642ZM8.503 7.96669C8.64544 7.96669 8.76389 7.91847 8.85833 7.82203C8.95277 7.7257 9 7.60625 9 7.4637C9 7.32125 8.95177 7.20281 8.85533 7.10836C8.759 7.01392 8.63955 6.96669 8.497 6.96669C8.35455 6.96669 8.23611 7.01492 8.14166 7.11136C8.04722 7.20769 8 7.32714 8 7.46969C8 7.61214 8.04822 7.73058 8.14466 7.82503C8.241 7.91947 8.36044 7.96669 8.503 7.96669Z" fill="black"/>
</svg>
