<svg width="49" height="49" viewBox="0 0 49 49" fill="none" xmlns="http://www.w3.org/2000/svg">
<path d="M16.245 24.4C15.8217 24.4 15.4683 24.5436 15.185 24.831C14.9017 25.1186 14.76 25.475 14.76 25.9V33.15C14.76 33.575 14.9045 33.9311 15.1935 34.2185C15.4828 34.5061 15.8392 34.65 16.2625 34.65C16.6862 34.65 17.0417 34.5061 17.329 34.2185C17.6163 33.9311 17.76 33.575 17.76 33.15V25.9C17.76 25.475 17.6133 25.1186 17.32 24.831C17.027 24.5436 16.6687 24.4 16.245 24.4ZM32.7375 13.65C32.3138 13.65 31.9603 13.7936 31.677 14.081C31.3937 14.3686 31.252 14.725 31.252 15.15V33.15C31.252 33.575 31.3967 33.9311 31.686 34.2185C31.975 34.5061 32.3313 34.65 32.755 34.65C33.1783 34.65 33.5337 34.5061 33.821 34.2185C34.1083 33.9311 34.252 33.575 34.252 33.15V15.15C34.252 14.725 34.1055 14.3686 33.8125 14.081C33.5192 13.7936 33.1608 13.65 32.7375 13.65ZM24.491 28.75C24.0637 28.75 23.7083 28.8936 23.425 29.181C23.1417 29.4686 23 29.825 23 30.25V33.15C23 33.575 23.1447 33.9311 23.434 34.2185C23.723 34.5061 24.0813 34.65 24.509 34.65C24.9363 34.65 25.2917 34.5061 25.575 34.2185C25.8583 33.9311 26 33.575 26 33.15V30.25C26 29.825 25.8553 29.4686 25.566 29.181C25.277 28.8936 24.9187 28.75 24.491 28.75ZM9.60749 42.799C8.68749 42.799 7.88982 42.4611 7.21449 41.7855C6.53882 41.1101 6.20099 40.3125 6.20099 39.3925V9.60746C6.20099 8.68413 6.53882 7.88363 7.21449 7.20596C7.88982 6.52796 8.68749 6.18896 9.60749 6.18896H39.3925C40.3158 6.18896 41.1163 6.52796 41.794 7.20596C42.472 7.88363 42.811 8.68413 42.811 9.60746V39.3925C42.811 40.3125 42.472 41.1101 41.794 41.7855C41.1163 42.4611 40.3158 42.799 39.3925 42.799H9.60749ZM9.60749 39.3925H39.3925V9.60746H9.60749V39.3925ZM24.509 24.4C24.9363 24.4 25.2917 24.2553 25.575 23.966C25.8583 23.677 26 23.3186 26 22.891C26 22.4636 25.8553 22.1083 25.566 21.825C25.277 21.5416 24.9187 21.4 24.491 21.4C24.0637 21.4 23.7083 21.5446 23.425 21.834C23.1417 22.123 23 22.4813 23 22.909C23 23.3363 23.1447 23.6916 23.434 23.975C23.723 24.2583 24.0813 24.4 24.509 24.4Z" fill="black"/>
</svg>
