<svg width="17" height="17" viewBox="0 0 17 17" fill="none" xmlns="http://www.w3.org/2000/svg">
<path d="M4.2217 13.925C3.89814 13.925 3.6262 13.8147 3.40586 13.5943C3.18542 13.374 3.0752 13.102 3.0752 12.7785C3.0752 12.4549 3.18542 12.1832 3.40586 11.9633C3.6262 11.7433 3.89814 11.6333 4.2217 11.6333C4.54525 11.6333 4.81697 11.7433 5.03686 11.9633C5.25686 12.1832 5.36686 12.4549 5.36686 12.7785C5.36686 13.102 5.25686 13.374 5.03686 13.5943C4.81697 13.8147 4.54525 13.925 4.2217 13.925ZM8.5017 13.925C8.17892 13.925 7.90736 13.8147 7.68703 13.5943C7.46658 13.374 7.35636 13.102 7.35636 12.7785C7.35636 12.4549 7.46608 12.1832 7.68553 11.9633C7.90486 11.7433 8.17592 11.6333 8.49869 11.6333C8.82147 11.6333 9.09303 11.7433 9.31336 11.9633C9.53381 12.1832 9.64403 12.4549 9.64403 12.7785C9.64403 13.102 9.53431 13.374 9.31486 13.5943C9.09553 13.8147 8.82447 13.925 8.5017 13.925ZM12.7787 13.925C12.4551 13.925 12.1834 13.8147 11.9635 13.5943C11.7435 13.374 11.6335 13.102 11.6335 12.7785C11.6335 12.4549 11.7435 12.1832 11.9635 11.9633C12.1834 11.7433 12.4551 11.6333 12.7787 11.6333C13.1023 11.6333 13.3742 11.7433 13.5945 11.9633C13.815 12.1832 13.9252 12.4549 13.9252 12.7785C13.9252 13.102 13.815 13.374 13.5945 13.5943C13.3742 13.8147 13.1023 13.925 12.7787 13.925ZM4.2217 9.64378C3.89814 9.64378 3.6262 9.53406 3.40586 9.31462C3.18542 9.09528 3.0752 8.82423 3.0752 8.50145C3.0752 8.17867 3.18542 7.90712 3.40586 7.68678C3.6262 7.46634 3.89814 7.35612 4.2217 7.35612C4.54525 7.35612 4.81697 7.46584 5.03686 7.68528C5.25686 7.90462 5.36686 8.17567 5.36686 8.49845C5.36686 8.82123 5.25686 9.09278 5.03686 9.31312C4.81697 9.53356 4.54525 9.64378 4.2217 9.64378ZM8.5017 9.64378C8.17892 9.64378 7.90736 9.53406 7.68703 9.31462C7.46658 9.09528 7.35636 8.82423 7.35636 8.50145C7.35636 8.17867 7.46608 7.90712 7.68553 7.68678C7.90486 7.46634 8.17592 7.35612 8.49869 7.35612C8.82147 7.35612 9.09303 7.46584 9.31336 7.68528C9.53381 7.90462 9.64403 8.17567 9.64403 8.49845C9.64403 8.82123 9.53431 9.09278 9.31486 9.31312C9.09553 9.53356 8.82447 9.64378 8.5017 9.64378ZM12.7787 9.64378C12.4551 9.64378 12.1834 9.53406 11.9635 9.31462C11.7435 9.09528 11.6335 8.82423 11.6335 8.50145C11.6335 8.17867 11.7435 7.90712 11.9635 7.68678C12.1834 7.46634 12.4551 7.35612 12.7787 7.35612C13.1023 7.35612 13.3742 7.46584 13.5945 7.68528C13.815 7.90462 13.9252 8.17567 13.9252 8.49845C13.9252 8.82123 13.815 9.09278 13.5945 9.31312C13.3742 9.53356 13.1023 9.64378 12.7787 9.64378ZM4.2217 5.36662C3.89814 5.36662 3.6262 5.25662 3.40586 5.03662C3.18542 4.81673 3.0752 4.54501 3.0752 4.22145C3.0752 3.8979 3.18542 3.62595 3.40586 3.40562C3.6262 3.18517 3.89814 3.07495 4.2217 3.07495C4.54525 3.07495 4.81697 3.18517 5.03686 3.40562C5.25686 3.62595 5.36686 3.8979 5.36686 4.22145C5.36686 4.54501 5.25686 4.81673 5.03686 5.03662C4.81697 5.25662 4.54525 5.36662 4.2217 5.36662ZM8.5017 5.36662C8.17892 5.36662 7.90736 5.25662 7.68703 5.03662C7.46658 4.81673 7.35636 4.54501 7.35636 4.22145C7.35636 3.8979 7.46608 3.62595 7.68553 3.40562C7.90486 3.18517 8.17592 3.07495 8.49869 3.07495C8.82147 3.07495 9.09303 3.18517 9.31336 3.40562C9.53381 3.62595 9.64403 3.8979 9.64403 4.22145C9.64403 4.54501 9.53431 4.81673 9.31486 5.03662C9.09553 5.25662 8.82447 5.36662 8.5017 5.36662ZM12.7787 5.36662C12.4551 5.36662 12.1834 5.25662 11.9635 5.03662C11.7435 4.81673 11.6335 4.54501 11.6335 4.22145C11.6335 3.8979 11.7435 3.62595 11.9635 3.40562C12.1834 3.18517 12.4551 3.07495 12.7787 3.07495C13.1023 3.07495 13.3742 3.18517 13.5945 3.40562C13.815 3.62595 13.9252 3.8979 13.9252 4.22145C13.9252 4.54501 13.815 4.81673 13.5945 5.03662C13.3742 5.25662 13.1023 5.36662 12.7787 5.36662Z" fill="black"/>
</svg>
