<svg width="17" height="17" viewBox="0 0 17 17" fill="none" xmlns="http://www.w3.org/2000/svg">
<path d="M5.24043 12.0383C4.7801 12.4294 4.29899 12.6049 3.7971 12.5646C3.2951 12.5244 2.86038 12.349 2.49293 12.0383C2.12538 11.7277 1.87993 11.3277 1.7566 10.8381C1.63326 10.3487 1.72826 9.84336 2.0416 9.32214L3.38826 7.07064C3.09093 6.8293 2.85471 6.53092 2.6796 6.17547C2.50449 5.82003 2.41693 5.43858 2.41693 5.03114C2.41693 4.29969 2.67549 3.67492 3.1926 3.1568C3.70971 2.63869 4.33326 2.37964 5.06326 2.37964C5.79037 2.37964 6.41321 2.63892 6.93176 3.15747C7.45043 3.67614 7.70976 4.29964 7.70976 5.02797C7.70976 5.75642 7.45043 6.37992 6.93176 6.89847C6.41321 7.41714 5.79037 7.67647 5.06326 7.67647C4.94749 7.67647 4.83171 7.66881 4.71593 7.65347C4.60004 7.63814 4.49182 7.61381 4.39126 7.58047L3.0071 9.90647C2.85954 10.1514 2.81315 10.3901 2.86793 10.6226C2.92271 10.8552 3.03821 11.044 3.21443 11.189C3.39065 11.334 3.59654 11.4148 3.8321 11.4313C4.06765 11.4479 4.29121 11.3657 4.50276 11.1848L11.7633 4.9488C12.2264 4.55514 12.7117 4.37497 13.2191 4.4083C13.7267 4.44164 14.1635 4.61497 14.5296 4.92831C14.8958 5.24153 15.1393 5.64597 15.2599 6.14164C15.3806 6.63719 15.2856 7.14369 14.9749 7.66114L13.6488 9.91664C13.9462 10.1553 14.1825 10.452 14.3576 10.8068C14.5327 11.1617 14.6203 11.5432 14.6203 11.9513C14.6203 12.6819 14.3593 13.3059 13.8373 13.8235C13.3153 14.3409 12.6877 14.5996 11.9544 14.5996C11.2212 14.5996 10.5994 14.3411 10.0891 13.824C9.57865 13.3069 9.32343 12.6833 9.32343 11.9533C9.32343 11.2262 9.57865 10.6034 10.0891 10.0848C10.5994 9.56614 11.2214 9.30681 11.9551 9.30681C12.0668 9.30681 12.1773 9.31169 12.2866 9.32147C12.3959 9.33125 12.5046 9.35147 12.6126 9.38214L13.9966 7.0768C14.1443 6.83447 14.1893 6.59653 14.1318 6.36297C14.0742 6.12931 13.9573 5.94058 13.7811 5.7968C13.6048 5.65303 13.3989 5.5728 13.1636 5.55614C12.9282 5.53947 12.7073 5.62025 12.5011 5.79847L5.24043 12.0383ZM5.06593 6.53697C5.4816 6.53697 5.83687 6.38925 6.13176 6.09381C6.42676 5.79847 6.57426 5.44236 6.57426 5.02547C6.57426 4.60847 6.42588 4.25319 6.1291 3.95964C5.83243 3.66597 5.47565 3.51914 5.05876 3.51914C4.64176 3.51914 4.28649 3.6668 3.99293 3.96214C3.69926 4.25736 3.55243 4.61419 3.55243 5.03264C3.55243 5.44831 3.7001 5.80292 3.99543 6.09647C4.29065 6.39014 4.64749 6.53697 5.06593 6.53697ZM11.9574 13.4641C12.3777 13.4641 12.7366 13.3165 13.0343 13.0211C13.3319 12.7259 13.4808 12.3691 13.4808 11.9506C13.4808 11.535 13.3319 11.1797 13.0343 10.8848C12.7367 10.5898 12.3771 10.4423 11.9554 10.4423C11.5365 10.4423 11.1831 10.5907 10.8951 10.8875C10.607 11.1841 10.4629 11.5409 10.4629 11.9578C10.4629 12.3748 10.607 12.7301 10.8951 13.0236C11.1831 13.3173 11.5372 13.4641 11.9574 13.4641Z" fill="black"/>
</svg>
