<svg width="25" height="25" viewBox="0 0 25 25" fill="none" xmlns="http://www.w3.org/2000/svg">
<path d="M4.61914 3.84473H8.11914C8.25694 3.84473 8.36264 3.87575 8.45117 3.93262L8.53516 3.99805C8.62866 4.08614 8.70717 4.20059 8.76562 4.35156L8.81738 4.51465L9.48242 7.52832C9.50674 7.70089 9.50942 7.84747 9.49414 7.97168L9.47266 8.0918C9.44931 8.18996 9.4084 8.27513 9.34766 8.35156L9.28027 8.42578L9.27344 8.43164L6.75586 10.915L6.47656 11.1904L6.67676 11.5264C6.99677 12.0642 7.33163 12.5769 7.68164 13.0635L8.03711 13.542C8.52004 14.1716 9.05596 14.7704 9.64453 15.3379V15.3369C10.1036 15.8108 10.578 16.2522 11.0684 16.6602L11.5684 17.0605C12.2435 17.5804 12.949 18.0353 13.6846 18.4248L14.0156 18.5996L14.2764 18.332L16.6816 15.8643L16.6914 15.8535C16.8311 15.702 16.9785 15.6119 17.1348 15.5654L17.1338 15.5645C17.2648 15.5256 17.3946 15.512 17.5254 15.5215L17.6572 15.5391L20.4775 16.1631C20.6433 16.2092 20.7751 16.2806 20.8818 16.375L20.9814 16.4775C21.0982 16.6186 21.1553 16.7764 21.1553 16.9707V20.3809C21.1553 20.5587 21.1138 20.7 21.0322 20.8193L20.9375 20.9316C20.7911 21.0766 20.6182 21.1494 20.3867 21.1494C18.6288 21.1494 16.8315 20.7535 14.9912 19.9502L14.6221 19.7842C12.7771 18.927 11.0526 17.7306 9.44922 16.1895L9.12988 15.876C7.54282 14.2889 6.29979 12.5798 5.39551 10.749L5.21875 10.3809C4.30172 8.40938 3.85059 6.49008 3.85059 4.61914C3.8506 4.44128 3.89186 4.29881 3.97363 4.17773L4.06934 4.06348C4.21339 3.91863 4.38514 3.84473 4.61914 3.84473ZM4.56641 5.0752C4.5896 5.6099 4.65839 6.16469 4.77148 6.73828L4.89941 7.31836C5.09098 8.10639 5.3907 8.97618 5.79492 9.9248L6.08398 10.6035L6.60742 10.083L8.62695 8.0752L8.82031 7.88281L8.7627 7.61621L8.19434 4.94922L8.10938 4.55371H4.54395L4.56641 5.0752ZM20.4463 16.877L20.0479 16.7949L17.5625 16.2803L17.291 16.2246L17.0986 16.4248L15.1357 18.4824L14.6543 18.9863L15.2871 19.2812C15.8083 19.5237 16.3623 19.7317 16.9482 19.9062L17.5449 20.0693C18.3556 20.2725 19.1478 20.3945 19.9209 20.4336L20.4463 20.46V16.877Z" fill="black" stroke="black"/>
</svg>
