<svg width="25" height="24" viewBox="0 0 25 24" fill="none" xmlns="http://www.w3.org/2000/svg">
<path d="M9.88708 6.67285C9.96273 6.67285 10.0251 6.68997 10.0844 6.73145L10.1429 6.78125L15.0873 11.7256C15.1145 11.7528 15.1343 11.777 15.1488 11.7979L15.1781 11.8496V11.8506C15.1929 11.8861 15.2015 11.9259 15.2015 11.9746C15.2015 11.9991 15.1997 12.0214 15.1957 12.042L15.1781 12.0986V12.0996C15.1723 12.1135 15.163 12.1308 15.1488 12.1514L15.0873 12.2236L10.1185 17.1924C10.0408 17.2702 9.97362 17.292 9.89294 17.2891L9.82458 17.2812C9.7802 17.2716 9.73802 17.2529 9.69568 17.2227L9.6322 17.168C9.55408 17.0898 9.52283 17.013 9.52283 16.9121C9.52283 16.8364 9.53991 16.7741 9.58142 16.7148L9.6322 16.6562L14.3138 11.9746L9.60681 7.26758C9.54868 7.20943 9.52159 7.15776 9.51306 7.10156L9.51013 7.04297C9.51271 6.97244 9.53135 6.90909 9.57654 6.8457L9.6322 6.78125C9.71013 6.70344 9.78649 6.67293 9.88708 6.67285Z" fill="black" stroke="black"/>
</svg>
