<svg width="25" height="24" viewBox="0 0 25 24" fill="none" xmlns="http://www.w3.org/2000/svg">
<path d="M9.88721 6.67285C9.96285 6.67285 10.0252 6.68997 10.0845 6.73145L10.1431 6.78125L15.0874 11.7256C15.1146 11.7528 15.1344 11.777 15.1489 11.7979L15.1782 11.8496V11.8506C15.193 11.8861 15.2017 11.9259 15.2017 11.9746C15.2017 11.9991 15.1998 12.0214 15.1958 12.042L15.1782 12.0986V12.0996C15.1724 12.1135 15.1632 12.1308 15.1489 12.1514L15.0874 12.2236L10.1187 17.1924C10.0409 17.2702 9.97374 17.292 9.89307 17.2891L9.82471 17.2812C9.78032 17.2716 9.73814 17.2529 9.6958 17.2227L9.63232 17.168C9.5542 17.0898 9.52295 17.013 9.52295 16.9121C9.52295 16.8364 9.54003 16.7741 9.58154 16.7148L9.63232 16.6562L14.314 11.9746L9.60693 7.26758C9.54881 7.20943 9.52171 7.15776 9.51318 7.10156L9.51025 7.04297C9.51283 6.97244 9.53147 6.90909 9.57666 6.8457L9.63232 6.78125C9.71025 6.70344 9.78662 6.67293 9.88721 6.67285Z" fill="black" stroke="black"/>
</svg>
