<svg width="25" height="25" viewBox="0 0 25 25" fill="none" xmlns="http://www.w3.org/2000/svg">
<path d="M9.88721 7.61206C9.96285 7.61206 10.0252 7.62918 10.0845 7.67065L10.1431 7.72046L15.0874 12.6648C15.1146 12.692 15.1344 12.7162 15.1489 12.7371L15.1782 12.7888V12.7898C15.193 12.8254 15.2017 12.8651 15.2017 12.9138C15.2017 12.9383 15.1998 12.9606 15.1958 12.9812L15.1782 13.0378V13.0388C15.1724 13.0528 15.1632 13.07 15.1489 13.0906L15.0874 13.1628L10.1187 18.1316C10.0409 18.2094 9.97374 18.2312 9.89307 18.2283L9.82471 18.2205C9.78032 18.2108 9.73814 18.1921 9.6958 18.1619L9.63232 18.1072C9.5542 18.0291 9.52295 17.9522 9.52295 17.8513C9.52295 17.7756 9.54003 17.7133 9.58154 17.6541L9.63232 17.5955L14.314 12.9138L9.60693 8.20679C9.54881 8.14863 9.52171 8.09696 9.51318 8.04077L9.51025 7.98218C9.51283 7.91165 9.53147 7.8483 9.57666 7.78491L9.63232 7.72046C9.71025 7.64265 9.78662 7.61214 9.88721 7.61206Z" fill="black" stroke="black"/>
</svg>
