<svg width="25" height="25" viewBox="0 0 25 25" fill="none" xmlns="http://www.w3.org/2000/svg">
<path d="M9.88721 7.17285C9.96285 7.17285 10.0252 7.18997 10.0845 7.23145L10.1431 7.28125L15.0874 12.2256C15.1146 12.2528 15.1344 12.277 15.1489 12.2979L15.1782 12.3496V12.3506C15.193 12.3861 15.2017 12.4259 15.2017 12.4746C15.2017 12.4991 15.1998 12.5214 15.1958 12.542L15.1782 12.5986V12.5996C15.1724 12.6135 15.1632 12.6308 15.1489 12.6514L15.0874 12.7236L10.1187 17.6924C10.0409 17.7702 9.97374 17.792 9.89307 17.7891L9.82471 17.7812C9.78032 17.7716 9.73814 17.7529 9.6958 17.7227L9.63232 17.668C9.5542 17.5898 9.52295 17.513 9.52295 17.4121C9.52295 17.3364 9.54003 17.2741 9.58154 17.2148L9.63232 17.1562L14.314 12.4746L9.60693 7.76758C9.54881 7.70943 9.52171 7.65776 9.51318 7.60156L9.51025 7.54297C9.51283 7.47244 9.53147 7.40909 9.57666 7.3457L9.63232 7.28125C9.71025 7.20344 9.78662 7.17293 9.88721 7.17285Z" fill="black" stroke="black"/>
</svg>
