<svg width="25" height="25" viewBox="0 0 25 25" fill="none" xmlns="http://www.w3.org/2000/svg">
<path d="M9.88708 7.17285C9.96273 7.17285 10.0251 7.18997 10.0844 7.23145L10.1429 7.28125L15.0873 12.2256C15.1145 12.2528 15.1343 12.277 15.1488 12.2979L15.1781 12.3496V12.3506C15.1929 12.3861 15.2015 12.4259 15.2015 12.4746C15.2015 12.4991 15.1997 12.5214 15.1957 12.542L15.1781 12.5986V12.5996C15.1723 12.6135 15.163 12.6308 15.1488 12.6514L15.0873 12.7236L10.1185 17.6924C10.0408 17.7702 9.97362 17.792 9.89294 17.7891L9.82458 17.7812C9.7802 17.7716 9.73802 17.7529 9.69568 17.7227L9.6322 17.668C9.55408 17.5898 9.52283 17.513 9.52283 17.4121C9.52283 17.3364 9.53991 17.2741 9.58142 17.2148L9.6322 17.1562L14.3138 12.4746L9.60681 7.76758C9.54868 7.70943 9.52159 7.65776 9.51306 7.60156L9.51013 7.54297C9.51271 7.47244 9.53135 7.40909 9.57654 7.3457L9.6322 7.28125C9.71013 7.20344 9.78649 7.17293 9.88708 7.17285Z" fill="black" stroke="black"/>
</svg>
