<svg width="17" height="17" viewBox="0 0 17 17" fill="none" xmlns="http://www.w3.org/2000/svg">
<path d="M8.50468 9.64724L6.59051 11.5612C6.70751 11.7475 6.77924 11.9268 6.80568 12.0994C6.83213 12.2718 6.84535 12.461 6.84535 12.6667C6.84535 13.3863 6.60463 13.9868 6.12318 14.4684C5.64174 14.9498 5.04129 15.1906 4.32185 15.1906C3.60251 15.1906 3.00262 14.9499 2.52218 14.4686C2.04174 13.9871 1.80151 13.3867 1.80151 12.6672C1.80151 11.9478 2.04162 11.3472 2.52185 10.8654C3.00196 10.3837 3.60179 10.1429 4.32135 10.1429C4.5169 10.1429 4.70974 10.17 4.89985 10.2242C5.08985 10.2785 5.28774 10.3585 5.49351 10.4642L7.39101 8.56674L5.46018 6.6359C5.27396 6.71946 5.08629 6.77724 4.89718 6.80924C4.70796 6.84124 4.51601 6.85724 4.32135 6.85724C3.60179 6.85724 3.00196 6.61657 2.52185 6.13524C2.04162 5.65379 1.80151 5.05335 1.80151 4.3339C1.80151 3.61446 2.04157 3.01385 2.52168 2.53207C3.00179 2.0504 3.60151 1.80957 4.32085 1.80957C5.04029 1.80957 5.6409 2.05029 6.12268 2.53174C6.60446 3.01329 6.84535 3.61385 6.84535 4.3334C6.84535 4.53918 6.83279 4.73385 6.80768 4.9174C6.78257 5.10107 6.72685 5.2749 6.64051 5.4389L14.4367 13.2349C14.7028 13.501 14.7639 13.8024 14.62 14.1391C14.476 14.4756 14.2164 14.6439 13.8412 14.6439C13.7342 14.6439 13.6301 14.6231 13.529 14.5814C13.428 14.5396 13.3384 14.4787 13.2602 14.3986L8.50468 9.64724ZM10.5392 7.71674L9.37135 6.5529L13.2602 2.66824C13.3384 2.58813 13.428 2.52718 13.529 2.4854C13.6301 2.44374 13.7342 2.4229 13.8412 2.4229C14.2163 2.4229 14.471 2.59329 14.6052 2.93407C14.7394 3.27496 14.6777 3.57424 14.42 3.8319L10.5392 7.71674ZM4.32218 5.80957C4.73596 5.80957 5.08596 5.66679 5.37218 5.38124C5.6584 5.09579 5.80151 4.74624 5.80151 4.33257C5.80151 3.9189 5.65851 3.56963 5.37251 3.28474C5.0864 2.99974 4.73612 2.85724 4.32168 2.85724C3.90724 2.85724 3.55757 3.00001 3.27268 3.28557C2.98779 3.57101 2.84535 3.92057 2.84535 4.33424C2.84535 4.7479 2.98807 5.09718 3.27351 5.38207C3.55896 5.66707 3.90851 5.80957 4.32218 5.80957ZM8.53801 8.95124C8.64557 8.95124 8.73651 8.91401 8.81085 8.83957C8.88529 8.76513 8.92251 8.67418 8.92251 8.56674C8.92251 8.45929 8.88529 8.36835 8.81085 8.2939C8.73651 8.21946 8.64557 8.18224 8.53801 8.18224C8.43057 8.18224 8.33963 8.21946 8.26518 8.2939C8.19085 8.36835 8.15368 8.45929 8.15368 8.56674C8.15368 8.67418 8.19085 8.76513 8.26518 8.83957C8.33963 8.91401 8.43057 8.95124 8.53801 8.95124ZM4.32218 14.1429C4.73596 14.1429 5.08596 14.0001 5.37218 13.7146C5.6584 13.4291 5.80151 13.0796 5.80151 12.6659C5.80151 12.2522 5.65851 11.903 5.37251 11.6181C5.0864 11.3331 4.73612 11.1906 4.32168 11.1906C3.90724 11.1906 3.55757 11.3333 3.27268 11.6189C2.98779 11.9043 2.84535 12.2539 2.84535 12.6676C2.84535 13.0812 2.98807 13.4305 3.27351 13.7154C3.55896 14.0004 3.90851 14.1429 4.32218 14.1429Z" fill="black"/>
</svg>
