<svg width="49" height="48" viewBox="0 0 49 48" fill="none" xmlns="http://www.w3.org/2000/svg">
<path d="M24.4502 30.8215C25.5168 30.8215 26.4168 30.4632 27.1502 29.7465C27.8835 29.0299 28.2502 28.1382 28.2502 27.0715C28.2502 26.0049 27.8835 25.1132 27.1502 24.3965C26.4168 23.6799 25.5252 23.3215 24.4752 23.3215C23.4252 23.3215 22.5418 23.689 21.8252 24.424C21.1085 25.1587 20.7502 26.042 20.7502 27.074C20.7502 28.1057 21.1125 28.9882 21.8372 29.7215C22.5618 30.4549 23.4328 30.8215 24.4502 30.8215ZM7.60767 42.299C6.68767 42.299 5.89001 41.9612 5.21467 41.2855C4.53901 40.6102 4.20117 39.8125 4.20117 38.8925V15.251C4.20117 14.3277 4.53901 13.5272 5.21467 12.8495C5.89001 12.1715 6.68767 11.8325 7.60767 11.8325H16.2252V6.83253C16.2252 5.92086 16.563 5.12519 17.2387 4.44552C17.914 3.76586 18.7117 3.42603 19.6317 3.42603H29.3687C30.2887 3.42603 31.0863 3.76586 31.7617 4.44552C32.4373 5.12519 32.7752 5.92086 32.7752 6.83253V11.8325H41.3927C42.316 11.8325 43.1165 12.1715 43.7942 12.8495C44.4722 13.5272 44.8112 14.3277 44.8112 15.251V38.8925C44.8112 39.8125 44.4722 40.6102 43.7942 41.2855C43.1165 41.9612 42.316 42.299 41.3927 42.299H7.60767ZM7.60767 38.8925H41.3927V15.251H7.60767V38.8925ZM19.6317 11.8325H29.3687V6.83253H19.6317V11.8325Z" fill="black"/>
</svg>
