<svg width="49" height="49" viewBox="0 0 49 49" fill="none" xmlns="http://www.w3.org/2000/svg">
<path d="M20.1045 42.9426C19.5152 42.9426 19.0507 42.6976 18.711 42.2076C18.371 41.7179 18.201 41.1578 18.201 40.5271V16.7991H10.252C9.71533 16.7991 9.27666 16.5898 8.936 16.1711C8.59533 15.7528 8.478 15.2783 8.584 14.7476C9.08466 12.2296 10.2943 10.1518 12.213 8.51412C14.1317 6.87645 16.3748 6.05762 18.9425 6.05762H28.3955C29.0595 6.05762 29.628 6.29428 30.101 6.76761C30.5743 7.24061 30.811 7.80511 30.811 8.46111V13.1576L37.065 6.80362C37.291 6.54528 37.5573 6.35645 37.864 6.23712C38.1707 6.11745 38.4895 6.05762 38.8205 6.05762H39.239C39.685 6.05762 40.0585 6.19928 40.3595 6.48262C40.6605 6.76595 40.811 7.12428 40.811 7.55762V22.3556C40.811 22.7969 40.6605 23.1573 40.3595 23.4366C40.0585 23.7159 39.685 23.8556 39.239 23.8556H38.8205C38.4895 23.8556 38.1707 23.7969 37.864 23.6796C37.5573 23.5623 37.291 23.3763 37.065 23.1216L30.811 16.7556V40.5271C30.811 41.1911 30.5743 41.7596 30.101 42.2326C29.628 42.7059 29.0582 42.9426 28.3915 42.9426H20.1045ZM21.6075 39.5241H27.3925V27.8536H21.6075V39.5241ZM21.6075 24.4466H27.3925V9.47612H18.9425C17.6425 9.47612 16.3905 9.83078 15.1865 10.5401C13.9825 11.2498 13.1265 12.2006 12.6185 13.3926H21.6075V24.4466Z" fill="black"/>
</svg>
