<svg width="25" height="25" viewBox="0 0 25 25" fill="none" xmlns="http://www.w3.org/2000/svg">
<path d="M12.5 2.84473C14.3978 2.84473 16.0796 3.4636 17.5615 4.71777L17.8555 4.97754C19.379 6.37913 20.1553 8.2626 20.1553 10.6826C20.1552 11.5448 19.9892 12.4066 19.6514 13.2705L19.4961 13.6406C19.0993 14.5274 18.6143 15.3817 18.04 16.2031L17.7881 16.5527C17.183 17.3721 16.5325 18.1437 15.8359 18.8672L15.5352 19.1738C14.7121 19.9974 13.9448 20.7259 13.2334 21.3594L13.2275 21.3643L13.2227 21.3691C13.1548 21.4333 13.079 21.4844 12.9941 21.5225L12.9053 21.5566C12.7588 21.6041 12.6216 21.626 12.4922 21.626C12.3952 21.626 12.2958 21.6135 12.1934 21.5879L12.0898 21.5576C11.9741 21.5191 11.876 21.459 11.79 21.375L11.7812 21.3662L11.7715 21.3584L11.2256 20.8662C10.8545 20.5258 10.4703 20.1614 10.0723 19.7734L9.46484 19.1738C8.75546 18.4641 8.09161 17.7068 7.47363 16.9014L7.21191 16.5527C6.61231 15.7408 6.10209 14.8966 5.68164 14.0195L5.50684 13.6416C5.06647 12.6534 4.85064 11.6682 4.85059 10.6826C4.85059 8.41356 5.53293 6.61669 6.87207 5.24609L7.14844 4.97754C8.69877 3.54953 10.4757 2.84475 12.5 2.84473ZM12.5 3.55371C10.6859 3.55371 9.11841 4.14105 7.82422 5.31348L7.56836 5.55664C6.21878 6.89887 5.55371 8.62233 5.55371 10.6826C5.55381 12.0135 6.07552 13.4497 7.05078 14.9795L7.25195 15.2861C8.35681 16.9317 9.99748 18.7606 12.1592 20.7715L12.4961 21.085L12.8359 20.7764C14.9105 18.8943 16.4968 17.1672 17.5791 15.5967L17.7891 15.2852C18.8679 13.638 19.4462 12.0989 19.4463 10.6826C19.4463 8.75101 18.8619 7.11534 17.6768 5.8125L17.4316 5.55664V5.55566C16.0898 4.22177 14.4351 3.55375 12.5 3.55371ZM12.498 9.20215C12.8184 9.20219 13.0863 9.29636 13.3203 9.49121L13.4189 9.58105C13.6751 9.83617 13.7979 10.1325 13.7979 10.498C13.7978 10.8184 13.704 11.0852 13.5098 11.3174L13.4199 11.415C13.1651 11.6694 12.8684 11.792 12.502 11.792C12.1807 11.7919 11.9137 11.698 11.6816 11.5049L11.585 11.416C11.3314 11.1634 11.2081 10.8691 11.208 10.5029C11.208 10.1815 11.3023 9.91279 11.4961 9.67871L11.585 9.58105C11.8379 9.32567 12.1325 9.20215 12.498 9.20215Z" fill="black" stroke="black"/>
</svg>
