<svg width="49" height="49" viewBox="0 0 49 49" fill="none" xmlns="http://www.w3.org/2000/svg">
<path d="M24.166 4.68945C28.2142 4.68945 31.791 6.05875 34.9141 8.81543L35.2148 9.08691C38.3798 11.9983 39.9775 15.9056 39.9775 20.8643C39.9775 22.7832 39.5806 24.6958 38.7803 26.6045L38.6152 26.9854C37.8083 28.7886 36.8214 30.5244 35.6553 32.1924L35.1445 32.9033C33.9219 34.5589 32.6062 36.1175 31.1982 37.5801L30.5898 38.2012C28.9383 39.8537 27.3963 41.3171 25.9648 42.5918L25.9541 42.6025C25.7773 42.7698 25.5797 42.9021 25.3594 43.001L25.1318 43.0889C24.7931 43.1987 24.4661 43.251 24.1504 43.251C23.9137 43.251 23.6744 43.2219 23.4316 43.1611L23.1885 43.0898C22.8854 42.989 22.623 42.8288 22.3965 42.6074L22.3877 42.5996L22.3779 42.5908L21.2793 41.5996C20.5332 40.9152 19.7601 40.1842 18.9609 39.4053L17.7432 38.2012C16.3085 36.7659 14.9661 35.2347 13.7168 33.6064L13.1875 32.9033C11.9701 31.2548 10.9341 29.5385 10.0791 27.7549L9.72363 26.9863C8.81658 24.9509 8.36719 22.9113 8.36719 20.8643C8.36723 16.0603 9.8645 12.243 12.832 9.3623L13.124 9.08691C16.3135 6.14909 19.9873 4.68949 24.166 4.68945ZM24.166 7.1084C20.5403 7.1084 17.4419 8.31582 14.9004 10.7295L14.6562 10.9668C12.0614 13.547 10.7735 16.8608 10.7734 20.8643C10.7734 23.3971 11.7681 26.1758 13.6885 29.1885L14.085 29.7939C16.2654 33.0414 19.5167 36.67 23.8252 40.6777L24.1621 40.9902L24.502 40.6816C28.636 36.9312 31.7778 33.5071 33.9121 30.4102L34.3262 29.7959V29.7949C36.4552 26.5442 37.5586 23.5625 37.5586 20.8643C37.5586 16.986 36.3505 13.7549 33.916 11.2109L33.6758 10.9668C31.0888 8.39521 27.9085 7.10847 24.166 7.1084ZM24.1621 17.4053C24.9179 17.4054 25.5648 17.6332 26.1221 18.0957L26.3555 18.3086C26.9627 18.9132 27.2617 19.6326 27.2617 20.4961C27.2617 21.2522 27.0334 21.8972 26.5713 22.4512L26.3594 22.6836C25.7551 23.2869 25.0351 23.5839 24.1709 23.584C23.414 23.584 22.7678 23.3575 22.2139 22.8984L21.9824 22.6875C21.3797 22.0871 21.083 21.3692 21.083 20.5049C21.083 19.7479 21.3097 19.1003 21.7695 18.543L21.9805 18.3096C22.5811 17.7033 23.2988 17.4053 24.1621 17.4053Z" fill="black" stroke="black"/>
</svg>
