<svg width="49" height="49" viewBox="0 0 49 49" fill="none" xmlns="http://www.w3.org/2000/svg">
<path d="M7.94043 8.68945H41.7256C42.4125 8.68945 43.0151 8.90553 43.5488 9.35352L43.7734 9.55957V9.56055C44.3616 10.1484 44.6445 10.8233 44.6445 11.6084V37.3926C44.6445 38.0762 44.4284 38.6763 43.9805 39.208L43.7744 39.4316C43.1867 40.0177 42.5113 40.2998 41.7256 40.2998H7.94043C7.25643 40.2998 6.65657 40.084 6.125 39.6377L5.90137 39.4326C5.3155 38.847 5.03418 38.1744 5.03418 37.3926V11.6084C5.03418 10.9209 5.24985 10.3179 5.69629 9.78418L5.90137 9.55957H5.90234C6.48798 8.97166 7.15936 8.68951 7.94043 8.68945ZM7.44043 11.7139V37.8926H42.2256V13.7051L41.4512 14.2158L25.5029 24.7148C25.4371 24.7495 25.3746 24.7815 25.3145 24.8096L25.1299 24.8887C25.0629 24.915 24.9673 24.9355 24.833 24.9355C24.7658 24.9355 24.7083 24.9302 24.6592 24.9219L24.5361 24.8887C24.4227 24.8441 24.2973 24.7858 24.1592 24.7129L8.44043 14.3633V12.3691L24.5596 22.9258L24.833 23.1055L25.1064 22.9268L41.7988 12.0264L43.2061 11.1084H6.51465L7.44043 11.7139Z" fill="black" stroke="black"/>
</svg>
