<svg width="17" height="17" viewBox="0 0 17 17" fill="none" xmlns="http://www.w3.org/2000/svg">
<path d="M4.10624 7.35785C3.88846 7.30163 3.68369 7.22274 3.49191 7.12118C3.30013 7.01963 3.13046 6.8924 2.98291 6.73951L2.63208 6.88151C2.51308 6.92863 2.39746 6.93396 2.28524 6.89751C2.17291 6.86107 2.08691 6.78913 2.02724 6.68168L1.91824 6.50218C1.85702 6.40585 1.8333 6.29824 1.84708 6.17935C1.86085 6.06057 1.9148 5.95829 2.00891 5.87251L2.33041 5.56935C2.27485 5.35601 2.24708 5.14757 2.24708 4.94401C2.24708 4.74057 2.27485 4.53151 2.33041 4.31685L2.00891 4.00685C1.9148 3.92307 1.86085 3.81907 1.84708 3.69485C1.8333 3.57051 1.85685 3.4599 1.91774 3.36301L2.00491 3.21785C2.06313 3.10985 2.15246 3.03507 2.27291 2.99351C2.39335 2.95196 2.51485 2.95474 2.63741 3.00185L2.98291 3.14385C3.13313 2.99096 3.30324 2.86368 3.49324 2.76201C3.68335 2.66046 3.88757 2.58174 4.10591 2.52585L4.15108 2.15901C4.1733 2.02624 4.23252 1.91551 4.32874 1.82685C4.42496 1.73818 4.53913 1.69385 4.67124 1.69385H4.82141C4.9503 1.69385 5.06269 1.73812 5.15857 1.82668C5.25446 1.91524 5.31452 2.02468 5.33874 2.15501L5.38341 2.52551C5.59852 2.58174 5.80196 2.66063 5.99374 2.76218C6.18552 2.86374 6.35519 2.99096 6.50274 3.14385L6.85357 3.00185C6.97169 2.95474 7.08774 2.94918 7.20174 2.98518C7.31574 3.02118 7.40319 3.09318 7.46408 3.20118L7.57207 3.36301C7.6303 3.4599 7.65319 3.57135 7.64074 3.69735C7.6283 3.82324 7.57363 3.92774 7.47674 4.01085L7.13874 4.31551C7.19696 4.5194 7.22607 4.72601 7.22607 4.93535C7.22607 5.14468 7.19696 5.35551 7.13874 5.56785L7.47674 5.87651C7.57096 5.95963 7.62496 6.06135 7.63874 6.18168C7.65252 6.30213 7.6303 6.41501 7.57207 6.52035L7.48074 6.66501C7.41985 6.77335 7.32985 6.84829 7.21074 6.88985C7.09163 6.9314 6.97391 6.92863 6.85757 6.88151L6.50274 6.73951C6.35519 6.90351 6.18574 7.03357 5.99441 7.12968C5.80296 7.22568 5.59941 7.30163 5.38374 7.35751L5.33874 7.72301C5.31385 7.85668 5.25352 7.96785 5.15774 8.05651C5.06196 8.14518 4.94841 8.18951 4.81708 8.18951H4.66791C4.53658 8.18951 4.42307 8.14579 4.32741 8.05835C4.23174 7.97101 4.17296 7.86101 4.15108 7.72835L4.10624 7.35785ZM4.74174 6.45118C5.15763 6.45118 5.51369 6.3039 5.80991 6.00935C6.10613 5.7149 6.25424 5.35913 6.25424 4.94201C6.25424 4.5249 6.10619 4.16901 5.81007 3.87435C5.51396 3.57957 5.15752 3.43218 4.74074 3.43218C4.32385 3.43218 3.96808 3.58001 3.67341 3.87568C3.37874 4.17124 3.23141 4.52701 3.23141 4.94301C3.23141 5.35901 3.37913 5.71435 3.67458 6.00901C3.97013 6.30379 4.32585 6.45118 4.74174 6.45118ZM11.0237 14.975C10.7079 14.8972 10.4071 14.7766 10.1216 14.613C9.83613 14.4496 9.58941 14.2376 9.38141 13.9772L8.94807 14.1145C8.81474 14.159 8.68074 14.1568 8.54607 14.1082C8.41141 14.0595 8.30696 13.9732 8.23274 13.8492L8.09674 13.6172C8.01985 13.4932 7.99252 13.3593 8.01474 13.2155C8.03696 13.0717 8.10363 12.9501 8.21474 12.8505L8.54807 12.5518C8.45119 12.247 8.40274 11.9323 8.40274 11.608C8.40274 11.2836 8.45119 10.9703 8.54807 10.6682L8.21474 10.3848C8.10363 10.296 8.03696 10.1772 8.01474 10.0285C7.99252 9.87985 8.02052 9.74357 8.09874 9.61968L8.24941 9.36685C8.31519 9.24551 8.41196 9.16263 8.53974 9.11818C8.66752 9.07374 8.79807 9.06818 8.93141 9.10151L9.38141 9.22218C9.60052 8.97285 9.85002 8.76429 10.1299 8.59651C10.4099 8.42885 10.7085 8.31035 11.0256 8.24101L11.1411 7.75768C11.174 7.62435 11.2432 7.51324 11.3487 7.42435C11.4543 7.33546 11.5793 7.29101 11.7237 7.29101H12.0237C12.1682 7.29101 12.296 7.33546 12.4071 7.42435C12.5182 7.51324 12.5904 7.62435 12.6237 7.75768L12.7404 8.24101C13.076 8.28813 13.381 8.39896 13.6554 8.57351C13.9297 8.74818 14.1765 8.9644 14.3956 9.22218L14.8456 9.10151C14.9816 9.06818 15.1135 9.07651 15.2412 9.12651C15.369 9.17651 15.4658 9.26263 15.5316 9.38485L15.6802 9.61818C15.7571 9.7404 15.7817 9.87374 15.7539 10.0182C15.7261 10.1626 15.6567 10.2848 15.5456 10.3848L15.2289 10.6682C15.3258 10.9703 15.3742 11.2836 15.3742 11.608C15.3742 11.9323 15.3258 12.247 15.2289 12.5518L15.5622 12.8492C15.6734 12.9483 15.74 13.0701 15.7622 13.2145C15.7845 13.359 15.7571 13.4927 15.6802 13.6158L15.5482 13.8505C15.4714 13.9736 15.3656 14.0623 15.2309 14.1165C15.0962 14.1707 14.9567 14.1701 14.8122 14.1145L14.3956 13.9772C14.1876 14.2487 13.9415 14.4635 13.6574 14.6213C13.3732 14.7793 13.0675 14.8972 12.7404 14.975L12.6237 15.4583C12.5904 15.5917 12.521 15.7028 12.4154 15.7917C12.3099 15.8806 12.1849 15.925 12.0404 15.925H11.7404C11.596 15.925 11.4682 15.8806 11.3571 15.7917C11.246 15.7028 11.1737 15.5917 11.1404 15.4583L11.0237 14.975ZM11.8886 13.8888C12.5237 13.8888 13.0622 13.6674 13.5042 13.2245C13.9462 12.7816 14.1672 12.243 14.1672 11.6087C14.1672 10.9743 13.9461 10.4355 13.5039 9.99218C13.0617 9.54885 12.5239 9.32718 11.8904 9.32718C11.254 9.32718 10.7147 9.54868 10.2727 9.99168C9.83074 10.4348 9.60974 10.9736 9.60974 11.608C9.60974 12.2445 9.83074 12.7837 10.2727 13.2257C10.7147 13.6678 11.2534 13.8888 11.8886 13.8888Z" fill="black"/>
</svg>
