<svg width="17" height="16" viewBox="0 0 17 16" fill="none" xmlns="http://www.w3.org/2000/svg">
<path d="M4.1063 6.85785C3.88853 6.80163 3.68375 6.72274 3.49197 6.62118C3.30019 6.51963 3.13052 6.3924 2.98297 6.23951L2.63214 6.38151C2.51314 6.42863 2.39753 6.43396 2.2853 6.39751C2.17297 6.36107 2.08697 6.28913 2.0273 6.18168L1.9183 6.00218C1.85708 5.90585 1.83336 5.79824 1.84714 5.67935C1.86091 5.56057 1.91486 5.45829 2.00897 5.37251L2.33047 5.06935C2.27491 4.85601 2.24714 4.64757 2.24714 4.44401C2.24714 4.24057 2.27491 4.03151 2.33047 3.81685L2.00897 3.50685C1.91486 3.42307 1.86091 3.31907 1.84714 3.19485C1.83336 3.07051 1.85691 2.9599 1.9178 2.86301L2.00497 2.71785C2.06319 2.60985 2.15253 2.53507 2.27297 2.49351C2.39341 2.45196 2.51491 2.45474 2.63747 2.50185L2.98297 2.64385C3.13319 2.49096 3.3033 2.36368 3.4933 2.26201C3.68341 2.16046 3.88764 2.08174 4.10597 2.02585L4.15114 1.65901C4.17336 1.52624 4.23258 1.41551 4.3288 1.32685C4.42502 1.23818 4.53919 1.19385 4.6713 1.19385H4.82147C4.95036 1.19385 5.06275 1.23812 5.15864 1.32668C5.25452 1.41524 5.31458 1.52468 5.3388 1.65501L5.38347 2.02551C5.59858 2.08174 5.80202 2.16063 5.9938 2.26218C6.18558 2.36374 6.35525 2.49096 6.5028 2.64385L6.85364 2.50185C6.97175 2.45474 7.0878 2.44918 7.2018 2.48518C7.3158 2.52118 7.40325 2.59318 7.46414 2.70118L7.57214 2.86301C7.63036 2.9599 7.65325 3.07135 7.6408 3.19735C7.62836 3.32324 7.57369 3.42774 7.4768 3.51085L7.1388 3.81551C7.19702 4.0194 7.22614 4.22601 7.22614 4.43535C7.22614 4.64468 7.19702 4.85551 7.1388 5.06785L7.4768 5.37651C7.57102 5.45963 7.62502 5.56135 7.6388 5.68168C7.65258 5.80213 7.63036 5.91501 7.57214 6.02035L7.4808 6.16501C7.41991 6.27335 7.32991 6.34829 7.2108 6.38985C7.09169 6.4314 6.97397 6.42863 6.85764 6.38151L6.5028 6.23951C6.35525 6.40351 6.1858 6.53357 5.99447 6.62968C5.80303 6.72568 5.59947 6.80163 5.3838 6.85751L5.3388 7.22301C5.31391 7.35668 5.25358 7.46785 5.1578 7.55651C5.06202 7.64518 4.94847 7.68951 4.81714 7.68951H4.66797C4.53664 7.68951 4.42314 7.64579 4.32747 7.55835C4.2318 7.47101 4.17303 7.36101 4.15114 7.22835L4.1063 6.85785ZM4.7418 5.95118C5.15769 5.95118 5.51375 5.8039 5.80997 5.50935C6.10619 5.2149 6.2543 4.85913 6.2543 4.44201C6.2543 4.0249 6.10625 3.66901 5.81014 3.37435C5.51402 3.07957 5.15758 2.93218 4.7408 2.93218C4.32391 2.93218 3.96814 3.08001 3.67347 3.37568C3.3788 3.67124 3.23147 4.02701 3.23147 4.44301C3.23147 4.85901 3.37919 5.21435 3.67464 5.50901C3.97019 5.80379 4.32591 5.95118 4.7418 5.95118ZM11.0238 14.475C10.7079 14.3972 10.4072 14.2766 10.1216 14.113C9.83619 13.9496 9.58947 13.7376 9.38147 13.4772L8.94814 13.6145C8.8148 13.659 8.6808 13.6568 8.54614 13.6082C8.41147 13.5595 8.30702 13.4732 8.2328 13.3492L8.0968 13.1172C8.01991 12.9932 7.99258 12.8593 8.0148 12.7155C8.03702 12.5717 8.10369 12.4501 8.2148 12.3505L8.54814 12.0518C8.45125 11.747 8.4028 11.4323 8.4028 11.108C8.4028 10.7836 8.45125 10.4703 8.54814 10.1682L8.2148 9.88485C8.10369 9.79596 8.03702 9.67718 8.0148 9.52851C7.99258 9.37985 8.02058 9.24357 8.0988 9.11968L8.24947 8.86685C8.31525 8.74551 8.41202 8.66263 8.5398 8.61818C8.66758 8.57374 8.79814 8.56818 8.93147 8.60151L9.38147 8.72218C9.60058 8.47285 9.85008 8.26429 10.13 8.09651C10.41 7.92885 10.7085 7.81035 11.0256 7.74101L11.1411 7.25768C11.174 7.12435 11.2432 7.01324 11.3488 6.92435C11.4544 6.83546 11.5794 6.79101 11.7238 6.79101H12.0238C12.1682 6.79101 12.296 6.83546 12.4071 6.92435C12.5182 7.01324 12.5905 7.12435 12.6238 7.25768L12.7405 7.74101C13.076 7.78813 13.381 7.89896 13.6555 8.07351C13.9298 8.24818 14.1765 8.4644 14.3956 8.72218L14.8456 8.60151C14.9816 8.56818 15.1135 8.57651 15.2413 8.62651C15.3691 8.67651 15.4659 8.76263 15.5316 8.88485L15.6803 9.11818C15.7572 9.2404 15.7817 9.37374 15.754 9.51818C15.7262 9.66263 15.6567 9.78485 15.5456 9.88485L15.229 10.1682C15.3259 10.4703 15.3743 10.7836 15.3743 11.108C15.3743 11.4323 15.3259 11.747 15.229 12.0518L15.5623 12.3492C15.6734 12.4483 15.7401 12.5701 15.7623 12.7145C15.7845 12.859 15.7572 12.9927 15.6803 13.1158L15.5483 13.3505C15.4714 13.4736 15.3656 13.5623 15.231 13.6165C15.0963 13.6707 14.9567 13.6701 14.8123 13.6145L14.3956 13.4772C14.1876 13.7487 13.9416 13.9635 13.6575 14.1213C13.3732 14.2793 13.0676 14.3972 12.7405 14.475L12.6238 14.9583C12.5905 15.0917 12.521 15.2028 12.4155 15.2917C12.3099 15.3806 12.1849 15.425 12.0405 15.425H11.7405C11.596 15.425 11.4682 15.3806 11.3571 15.2917C11.246 15.2028 11.1738 15.0917 11.1405 14.9583L11.0238 14.475ZM11.8886 13.3888C12.5237 13.3888 13.0623 13.1674 13.5043 12.7245C13.9463 12.2816 14.1673 11.743 14.1673 11.1087C14.1673 10.4743 13.9462 9.93551 13.504 9.49218C13.0617 9.04885 12.5239 8.82718 11.8905 8.82718C11.254 8.82718 10.7148 9.04868 10.2728 9.49168C9.8308 9.93479 9.6098 10.4736 9.6098 11.108C9.6098 11.7445 9.8308 12.2837 10.2728 12.7257C10.7148 13.1678 11.2534 13.3888 11.8886 13.3888Z" fill="black"/>
</svg>
