<svg width="17" height="17" viewBox="0 0 17 17" fill="none" xmlns="http://www.w3.org/2000/svg">
<path d="M8.10227 5.63075L6.75877 4.27058C6.64555 4.15725 6.58894 4.02397 6.58894 3.87075C6.58894 3.71753 6.64555 3.58425 6.75877 3.47092L8.10227 2.11075C8.2156 1.99753 8.34888 1.94092 8.5021 1.94092C8.65532 1.94092 8.7886 1.99753 8.90194 2.11075L10.2621 3.47092C10.3753 3.58425 10.4319 3.71753 10.4319 3.87075C10.4319 4.02397 10.3753 4.15725 10.2621 4.27058L8.90194 5.63075C8.7886 5.74397 8.65532 5.80058 8.5021 5.80058C8.34888 5.80058 8.2156 5.74397 8.10227 5.63075ZM1.61894 14.0286C1.45594 14.0286 1.32055 13.9747 1.21277 13.8669C1.1051 13.7593 1.05127 13.6239 1.05127 13.4608V11.2941C1.05127 10.9533 1.17244 10.6624 1.41477 10.4213C1.65721 10.1803 1.94749 10.0598 2.2856 10.0598H4.6556C4.84971 10.0598 5.0296 10.1043 5.19527 10.1934C5.36082 10.2825 5.50205 10.4064 5.61894 10.5651C5.94649 11.0398 6.36427 11.4075 6.87227 11.6684C7.38016 11.9293 7.92277 12.0598 8.5001 12.0598C9.07477 12.0598 9.61671 11.9293 10.1259 11.6684C10.6353 11.4075 11.0606 11.0398 11.4019 10.5651C11.5135 10.4064 11.6499 10.2825 11.8113 10.1934C11.9727 10.1043 12.1518 10.0598 12.3486 10.0598H14.7186C15.0594 10.0598 15.3503 10.1803 15.5914 10.4213C15.8324 10.6624 15.9529 10.9533 15.9529 11.2941V13.4608C15.9529 13.6239 15.8991 13.7593 15.7914 13.8669C15.6837 13.9747 15.5483 14.0286 15.3853 14.0286H12.0519C11.8888 14.0286 11.7534 13.9747 11.6458 13.8669C11.538 13.7593 11.4841 13.6239 11.4841 13.4608V12.0213C11.0814 12.3747 10.6238 12.6488 10.1111 12.8434C9.59844 13.0381 9.06144 13.1354 8.5001 13.1354C7.94144 13.1354 7.40788 13.0388 6.89944 12.8454C6.39099 12.6521 5.93121 12.3774 5.5201 12.0213V13.4608C5.5201 13.6239 5.46621 13.7593 5.35844 13.8669C5.25066 13.9747 5.11527 14.0286 4.95227 14.0286H1.61894ZM3.16677 8.77342C2.65877 8.77342 2.22155 8.5902 1.8551 8.22375C1.48877 7.85742 1.3056 7.41892 1.3056 6.90825C1.3056 6.39181 1.48877 5.95247 1.8551 5.59025C2.22155 5.22814 2.65877 5.04708 3.16677 5.04708C3.68588 5.04708 4.12655 5.22814 4.48877 5.59025C4.85088 5.95247 5.03194 6.39181 5.03194 6.90825C5.03194 7.41892 4.85088 7.85742 4.48877 8.22375C4.12655 8.5902 3.68588 8.77342 3.16677 8.77342ZM13.8334 8.77342C13.3254 8.77342 12.8882 8.5902 12.5218 8.22375C12.1554 7.85742 11.9723 7.41892 11.9723 6.90825C11.9723 6.39181 12.1554 5.95247 12.5218 5.59025C12.8882 5.22814 13.3254 5.04708 13.8334 5.04708C14.3525 5.04708 14.7932 5.22814 15.1554 5.59025C15.5175 5.95247 15.6986 6.39181 15.6986 6.90825C15.6986 7.41892 15.5175 7.85742 15.1554 8.22375C14.7932 8.5902 14.3525 8.77342 13.8334 8.77342Z" fill="black"/>
</svg>
