<svg width="49" height="49" viewBox="0 0 49 49" fill="none" xmlns="http://www.w3.org/2000/svg">
<path d="M23.3065 15.8925L19.276 11.812C18.9363 11.472 18.7665 11.0722 18.7665 10.6125C18.7665 10.1528 18.9363 9.753 19.276 9.413L23.3065 5.3325C23.6465 4.99283 24.0463 4.823 24.506 4.823C24.9657 4.823 25.3655 4.99283 25.7055 5.3325L29.786 9.413C30.1257 9.753 30.2955 10.1528 30.2955 10.6125C30.2955 11.0722 30.1257 11.472 29.786 11.812L25.7055 15.8925C25.3655 16.2322 24.9657 16.402 24.506 16.402C24.0463 16.402 23.6465 16.2322 23.3065 15.8925ZM3.8565 41.086C3.3675 41.086 2.96134 40.9243 2.638 40.601C2.315 40.278 2.1535 39.8718 2.1535 39.3825V32.8825C2.1535 31.8602 2.517 30.9873 3.244 30.264C3.97134 29.541 4.84217 29.1795 5.8565 29.1795H12.9665C13.5488 29.1795 14.0885 29.3132 14.5855 29.5805C15.0822 29.8478 15.5058 30.2195 15.8565 30.6955C16.8392 32.1195 18.0925 33.2228 19.6165 34.0055C21.1402 34.7882 22.768 35.1795 24.5 35.1795C26.224 35.1795 27.8498 34.7882 29.3775 34.0055C30.9055 33.2228 32.1815 32.1195 33.2055 30.6955C33.5402 30.2195 33.9495 29.8478 34.4335 29.5805C34.9178 29.3132 35.4552 29.1795 36.0455 29.1795H43.1555C44.1778 29.1795 45.0507 29.541 45.774 30.264C46.497 30.9873 46.8585 31.8602 46.8585 32.8825V39.3825C46.8585 39.8718 46.697 40.278 46.374 40.601C46.0507 40.9243 45.6445 41.086 45.1555 41.086H35.1555C34.6662 41.086 34.26 40.9243 33.937 40.601C33.6137 40.278 33.452 39.8718 33.452 39.3825V35.064C32.244 36.1243 30.871 36.9465 29.333 37.5305C27.795 38.1145 26.184 38.4065 24.5 38.4065C22.824 38.4065 21.2233 38.1165 19.698 37.5365C18.1727 36.9565 16.7933 36.1323 15.56 35.064V39.3825C15.56 39.8718 15.3983 40.278 15.075 40.601C14.7517 40.9243 14.3455 41.086 13.8565 41.086H3.8565ZM8.5 25.3205C6.976 25.3205 5.66434 24.7708 4.565 23.6715C3.466 22.5725 2.9165 21.257 2.9165 19.725C2.9165 18.1757 3.466 16.8577 4.565 15.771C5.66434 14.6847 6.976 14.1415 8.5 14.1415C10.0573 14.1415 11.3793 14.6847 12.466 15.771C13.5523 16.8577 14.0955 18.1757 14.0955 19.725C14.0955 21.257 13.5523 22.5725 12.466 23.6715C11.3793 24.7708 10.0573 25.3205 8.5 25.3205ZM40.5 25.3205C38.976 25.3205 37.6643 24.7708 36.565 23.6715C35.466 22.5725 34.9165 21.257 34.9165 19.725C34.9165 18.1757 35.466 16.8577 36.565 15.771C37.6643 14.6847 38.976 14.1415 40.5 14.1415C42.0573 14.1415 43.3793 14.6847 44.466 15.771C45.5523 16.8577 46.0955 18.1757 46.0955 19.725C46.0955 21.257 45.5523 22.5725 44.466 23.6715C43.3793 24.7708 42.0573 25.3205 40.5 25.3205Z" fill="black"/>
</svg>
