<svg width="17" height="16" viewBox="0 0 17 16" fill="none" xmlns="http://www.w3.org/2000/svg">
<path d="M8.10215 5.13087L6.75865 3.77071C6.64542 3.65737 6.58881 3.5241 6.58881 3.37087C6.58881 3.21765 6.64542 3.08437 6.75865 2.97104L8.10215 1.61087C8.21548 1.49765 8.34876 1.44104 8.50198 1.44104C8.6552 1.44104 8.78848 1.49765 8.90181 1.61087L10.262 2.97104C10.3752 3.08437 10.4318 3.21765 10.4318 3.37087C10.4318 3.5241 10.3752 3.65737 10.262 3.77071L8.90181 5.13087C8.78848 5.2441 8.6552 5.30071 8.50198 5.30071C8.34876 5.30071 8.21548 5.2441 8.10215 5.13087ZM1.61881 13.5287C1.45581 13.5287 1.32043 13.4748 1.21265 13.367C1.10498 13.2594 1.05115 13.124 1.05115 12.9609V10.7942C1.05115 10.4534 1.17231 10.1625 1.41465 9.92137C1.65709 9.68037 1.94737 9.55987 2.28548 9.55987H4.65548C4.84959 9.55987 5.02948 9.60443 5.19515 9.69354C5.3607 9.78265 5.50192 9.90654 5.61881 10.0652C5.94637 10.5399 6.36415 10.9077 6.87215 11.1685C7.38004 11.4294 7.92265 11.5599 8.49998 11.5599C9.07465 11.5599 9.61659 11.4294 10.1258 11.1685C10.6351 10.9077 11.0605 10.5399 11.4018 10.0652C11.5134 9.90654 11.6498 9.78265 11.8111 9.69354C11.9726 9.60443 12.1517 9.55987 12.3485 9.55987H14.7185C15.0593 9.55987 15.3502 9.68037 15.5913 9.92137C15.8323 10.1625 15.9528 10.4534 15.9528 10.7942V12.9609C15.9528 13.124 15.899 13.2594 15.7913 13.367C15.6835 13.4748 15.5481 13.5287 15.3851 13.5287H12.0518C11.8887 13.5287 11.7533 13.4748 11.6456 13.367C11.5379 13.2594 11.484 13.124 11.484 12.9609V11.5214C11.0813 11.8748 10.6236 12.1489 10.111 12.3435C9.59831 12.5382 9.06131 12.6355 8.49998 12.6355C7.94131 12.6355 7.40776 12.5389 6.89931 12.3455C6.39087 12.1522 5.93109 11.8775 5.51998 11.5214V12.9609C5.51998 13.124 5.46609 13.2594 5.35831 13.367C5.25054 13.4748 5.11515 13.5287 4.95215 13.5287H1.61881ZM3.16665 8.27354C2.65865 8.27354 2.22143 8.09032 1.85498 7.72387C1.48865 7.35754 1.30548 6.91904 1.30548 6.40837C1.30548 5.89193 1.48865 5.4526 1.85498 5.09037C2.22143 4.72826 2.65865 4.54721 3.16665 4.54721C3.68576 4.54721 4.12643 4.72826 4.48865 5.09037C4.85076 5.4526 5.03181 5.89193 5.03181 6.40837C5.03181 6.91904 4.85076 7.35754 4.48865 7.72387C4.12643 8.09032 3.68576 8.27354 3.16665 8.27354ZM13.8333 8.27354C13.3253 8.27354 12.8881 8.09032 12.5216 7.72387C12.1553 7.35754 11.9721 6.91904 11.9721 6.40837C11.9721 5.89193 12.1553 5.4526 12.5216 5.09037C12.8881 4.72826 13.3253 4.54721 13.8333 4.54721C14.3524 4.54721 14.7931 4.72826 15.1553 5.09037C15.5174 5.4526 15.6985 5.89193 15.6985 6.40837C15.6985 6.91904 15.5174 7.35754 15.1553 7.72387C14.7931 8.09032 14.3524 8.27354 13.8333 8.27354Z" fill="black"/>
</svg>
