<svg width="49" height="49" viewBox="0 0 49 49" fill="none" xmlns="http://www.w3.org/2000/svg">
<path d="M3.6825 33.4085V28.3885C3.6825 27.1698 3.99933 26.0603 4.633 25.06C5.26633 24.06 6.13866 23.3183 7.24999 22.835C9.27399 21.9523 11.346 21.2256 13.466 20.655C15.586 20.0843 17.7625 19.799 19.9955 19.799C21.7268 19.799 23.436 19.974 25.123 20.3239C26.81 20.674 28.4573 21.149 30.065 21.749C29.6347 22.1633 29.234 22.6001 28.863 23.0595C28.4923 23.5185 28.1713 24.0091 27.9 24.5315C26.6237 24.0818 25.325 23.7503 24.004 23.537C22.683 23.324 21.3447 23.2175 19.989 23.2175C18 23.2175 16.0595 23.4635 14.1675 23.9555C12.2755 24.4475 10.4533 25.0815 8.701 25.8575C8.193 26.0875 7.79933 26.436 7.51999 26.903C7.24066 27.3703 7.101 27.8805 7.101 28.4335V30.002H26.1315C26.0902 30.574 26.0962 31.1438 26.1495 31.7115C26.2028 32.2791 26.2867 32.8448 26.401 33.4085H3.6825ZM19.9875 16.749C17.8435 16.749 16.0327 16.01 14.555 14.532C13.077 13.054 12.338 11.2431 12.338 9.09945C12.338 6.95545 13.0763 5.14462 14.553 3.66695C16.0293 2.18895 17.8428 1.44995 19.9935 1.44995C22.1335 1.44995 23.9423 2.18828 25.42 3.66495C26.898 5.14128 27.637 6.95478 27.637 9.10545C27.637 11.2451 26.898 13.054 25.42 14.532C23.9423 16.01 22.1315 16.749 19.9875 16.749ZM19.986 13.474C21.2177 13.474 22.255 13.0538 23.098 12.2135C23.9407 11.3735 24.362 10.3388 24.362 9.10945C24.362 7.87978 23.9417 6.84162 23.101 5.99495C22.2607 5.14829 21.2255 4.72495 19.9955 4.72495C18.7622 4.72495 17.7235 5.14762 16.8795 5.99295C16.0352 6.83862 15.613 7.87612 15.613 9.10545C15.613 10.3348 16.0338 11.3703 16.8755 12.212C17.7175 13.0533 18.7543 13.474 19.986 13.474ZM38.424 9.10545C38.424 11.2375 37.6832 13.0443 36.2015 14.526C34.7202 16.008 32.912 16.749 30.777 16.749C30.338 16.749 29.9225 16.7303 29.5305 16.693C29.1385 16.6556 28.7265 16.5496 28.2945 16.375C29.2105 15.399 29.8538 14.2746 30.2245 13.002C30.5952 11.7293 30.7805 10.4306 30.7805 9.10595C30.7805 7.78162 30.5785 6.49078 30.1745 5.23345C29.7705 3.97645 29.1438 2.83995 28.2945 1.82395C28.7025 1.66995 29.1065 1.56912 29.5065 1.52145C29.9065 1.47378 30.3343 1.44995 30.79 1.44995C32.9133 1.44995 34.7165 2.19012 36.1995 3.67045C37.6825 5.15112 38.424 6.96278 38.424 9.10545ZM38.769 40.6575C36.094 40.6575 33.8127 39.7118 31.925 37.8205C30.0373 35.9291 29.0935 33.6418 29.0935 30.9585C29.0935 28.2691 30.0392 25.979 31.9305 24.088C33.8218 22.1966 36.1092 21.251 38.7925 21.251C41.4818 21.251 43.772 22.196 45.663 24.086C47.5543 25.9763 48.5 28.275 48.5 30.982C48.5 33.657 47.555 35.9383 45.665 37.826C43.7747 39.7136 41.476 40.6575 38.769 40.6575ZM36.9085 35.186L43.7285 28.3425L42.5465 27.1729L36.8965 32.823L34.0965 29.9729L32.915 31.1544L36.9085 35.186Z" fill="black"/>
</svg>
